{"glyphs":{"0":{"ha":793,"x_min":42,"x_max":751,"o":"m 435 901 q 665 788 578 901 q 751 489 751 675 q 647 119 751 254 q 358 -15 542 -15 q 130 99 218 -15 q 42 399 42 214 q 152 760 42 619 q 435 901 263 901 m 403 121 q 447 121 403 121 q 527 189 492 121 q 563 431 563 257 q 526 674 563 604 q 400 744 490 744 q 270 678 310 744 q 231 449 231 613 q 272 203 231 286 q 403 121 314 121 z "},"1":{"ha":540,"x_min":8,"x_max":396,"o":"m 396 903 l 375 361 l 392 0 l 197 0 l 214 338 l 203 683 l 8 682 l 8 772 l 396 903 z "},"2":{"ha":707,"x_min":31,"x_max":671,"o":"m 432 649 q 338 726 432 726 q 209 702 279 726 q 97 653 139 678 l 57 629 l 94 828 q 225 880 149 857 q 360 903 301 903 q 549 842 478 903 q 621 682 621 782 q 479 401 621 547 l 238 151 l 671 176 l 647 -8 l 358 4 l 31 -6 l 53 140 l 344 476 q 432 649 432 575 z "},"3":{"ha":678,"x_min":13,"x_max":624,"o":"m 85 861 q 317 903 201 903 q 506 844 432 903 q 579 697 579 786 q 543 576 579 628 q 440 497 507 524 q 581 408 538 461 q 624 272 624 354 q 527 66 624 147 q 282 -15 431 -15 q 144 3 211 -15 q 44 42 76 22 l 13 61 l 71 229 q 104 201 83 218 q 184 156 125 185 q 303 128 243 128 q 407 160 363 128 q 451 253 451 193 q 399 351 451 313 q 256 390 347 390 l 136 390 l 161 525 l 238 525 q 357 560 314 525 q 400 649 400 594 q 364 733 400 703 q 277 763 328 763 q 173 745 226 763 q 56 693 119 728 l 85 861 z "},"4":{"ha":744,"x_min":3,"x_max":688,"o":"m 14 344 l 344 865 l 574 893 l 554 356 l 688 361 l 674 221 l 563 224 l 571 0 l 376 0 l 390 226 l 3 225 l 14 344 m 386 714 l 165 357 l 393 358 l 386 714 z "},"5":{"ha":676,"x_min":24,"x_max":636,"o":"m 635 297 q 531 76 635 168 q 279 -15 428 -15 q 146 2 210 -15 q 53 36 82 19 l 24 54 l 82 217 q 190 156 125 183 q 310 128 254 128 q 411 163 367 128 q 456 250 456 199 q 286 404 456 376 l 101 435 l 101 894 l 340 878 l 622 893 l 592 701 l 235 733 l 235 571 l 386 544 q 569 457 503 524 q 635 297 635 390 z "},"6":{"ha":693,"x_min":44,"x_max":665,"o":"m 244 496 q 431 563 331 563 q 598 488 531 563 q 665 289 665 413 q 569 75 665 165 q 340 -15 474 -15 q 125 74 206 -15 q 44 307 44 163 q 127 592 44 451 q 388 903 210 732 l 581 821 q 244 496 317 650 m 369 419 q 210 371 281 419 q 207 324 207 340 q 250 181 207 235 q 358 128 293 128 q 460 167 422 128 q 497 269 497 206 q 461 376 497 332 q 369 419 425 419 z "},"7":{"ha":617,"x_min":7,"x_max":608,"o":"m 76 47 l 425 733 l 7 701 l 38 893 l 331 878 l 608 894 l 588 746 l 363 281 l 274 -15 l 76 47 z "},"8":{"ha":738,"x_min":56,"x_max":693,"o":"m 56 215 q 107 342 56 289 q 221 428 158 396 q 88 627 88 507 q 174 825 88 747 q 378 903 260 903 q 570 846 496 903 q 644 704 644 789 q 514 489 644 594 q 645 399 597 450 q 693 269 693 347 q 594 69 693 153 q 363 -15 494 -15 q 144 53 232 -15 q 56 215 56 121 m 489 303 q 463 318 489 303 q 379 356 438 333 q 300 389 321 379 q 210 268 210 329 q 258 169 210 207 q 380 132 307 132 q 497 159 453 132 q 540 230 540 186 q 489 303 540 274 m 240 672 q 240 653 240 672 q 263 615 240 635 q 297 587 285 596 q 339 564 310 578 q 431 525 390 540 q 494 653 494 606 q 458 730 494 701 q 365 758 421 758 q 274 733 308 758 q 240 672 240 708 z "},"9":{"ha":693,"x_min":28,"x_max":649,"o":"m 449 392 q 264 325 365 325 q 95 400 163 325 q 28 599 28 475 q 124 813 28 722 q 353 903 219 903 q 568 814 488 903 q 649 581 649 725 q 566 296 649 436 q 306 -15 483 156 l 113 67 q 449 392 375 238 m 324 468 q 483 517 414 468 q 486 564 486 547 q 443 706 486 653 q 335 760 400 760 q 233 721 271 760 q 196 619 196 682 q 232 512 196 556 q 324 468 268 468 z "}," ":{"ha":214,"x_min":0,"x_max":0,"o":""},"!":{"ha":343,"x_min":56,"x_max":315,"o":"m 56 91 q 56 114 56 91 q 89 172 56 138 q 167 206 122 206 q 234 181 211 206 q 257 110 257 157 q 225 27 257 63 q 149 -8 193 -8 q 81 18 106 -8 q 56 91 56 44 m 315 972 l 238 357 l 106 338 l 106 938 l 315 972 z "},"\"":{"ha":483,"x_min":64,"x_max":446,"o":"m 79 867 l 231 881 q 143 542 200 694 l 64 546 q 79 867 79 721 m 294 867 l 446 881 q 358 542 415 694 l 279 546 q 294 867 294 721 z "},"#":{"ha":590,"x_min":0,"x_max":590,"o":"m 39 418 l 47 511 l 163 511 l 186 656 l 290 665 l 265 511 l 372 511 l 396 656 l 499 665 l 474 511 l 590 511 l 582 418 l 458 418 l 443 315 l 551 315 l 543 221 l 428 221 l 404 69 l 300 60 l 325 221 l 219 221 l 196 69 l 92 60 l 117 221 l 0 221 l 8 315 l 132 315 l 149 418 l 39 418 m 250 418 l 235 315 l 340 315 l 357 418 l 250 418 z "},"$":{"ha":517,"x_min":10,"x_max":488,"o":"m 46 488 q 123 648 46 581 q 306 715 200 715 l 321 715 l 360 875 l 425 867 l 388 707 q 488 675 447 694 l 417 525 q 353 561 390 544 l 318 413 q 426 353 394 381 q 486 216 486 303 q 409 57 486 129 q 229 -15 332 -15 l 217 -15 l 176 -185 l 111 -175 l 151 -4 q 76 31 111 7 q 25 72 40 54 l 10 89 l 89 200 q 183 131 128 157 l 222 296 q 61 415 90 350 q 46 488 46 447 m 242 586 q 228 586 242 586 q 191 568 214 586 q 168 522 168 550 q 190 474 168 493 q 256 438 213 456 l 290 582 q 242 586 269 586 m 364 190 q 285 271 364 233 l 247 113 l 264 113 q 337 134 310 113 q 364 190 364 156 z "},"%":{"ha":1354,"x_min":38,"x_max":1317,"o":"m 321 965 q 485 887 422 965 q 549 682 549 808 q 473 430 549 522 q 265 338 397 338 q 101 417 165 338 q 38 633 38 496 q 117 868 38 771 q 321 965 197 965 m 298 443 q 327 443 298 443 q 379 485 357 443 q 401 642 401 528 q 378 801 401 757 q 295 844 356 844 q 210 804 235 844 q 185 656 185 764 q 212 495 185 547 q 298 443 239 443 m 1089 624 q 1253 545 1190 624 q 1317 340 1317 467 q 1241 88 1317 181 q 1033 -4 1165 -4 q 869 75 933 -4 q 806 292 806 154 q 885 526 806 429 q 1089 624 965 624 m 1066 101 q 1095 101 1066 101 q 1147 144 1125 101 q 1169 301 1169 186 q 1147 459 1169 415 q 1063 503 1124 503 q 978 463 1003 503 q 953 314 953 422 q 980 153 953 206 q 1066 101 1007 101 m 425 -165 l 315 -121 l 900 1053 l 1010 1008 l 425 -165 z "},"&":{"ha":883,"x_min":54,"x_max":822,"o":"m 649 453 q 667 301 667 340 q 663 240 667 261 l 819 86 l 706 -15 q 594 103 658 36 q 483 17 549 49 q 347 -15 418 -15 q 138 53 221 -15 q 54 226 54 122 q 218 463 54 367 q 107 672 107 578 q 190 834 107 765 q 392 903 274 903 q 526 888 464 903 q 614 858 588 872 l 639 843 l 553 679 q 463 734 517 710 q 362 758 410 758 q 287 736 314 758 q 260 679 260 714 q 293 590 260 631 q 453 439 326 550 l 549 350 q 513 561 542 422 l 531 579 l 822 579 l 811 453 l 649 453 m 281 401 q 215 275 215 339 q 260 168 215 211 q 389 125 306 125 q 517 182 472 125 q 347 344 426 274 q 281 401 314 369 z "},"'":{"ha":268,"x_min":64,"x_max":231,"o":"m 79 867 l 231 881 q 143 542 200 694 l 64 546 q 79 867 79 721 z "},"(":{"ha":386,"x_min":93,"x_max":393,"o":"m 351 -200 q 149 -10 204 -140 q 93 402 93 119 q 149 821 93 685 q 351 1029 204 957 l 393 963 q 260 786 296 900 q 225 417 225 672 q 260 45 225 163 q 393 -133 294 -72 l 351 -200 z "},")":{"ha":386,"x_min":-7,"x_max":293,"o":"m 35 1029 q 238 840 182 969 q 293 427 293 710 q 238 8 293 144 q 35 -200 182 -128 l -7 -133 q 126 43 90 -71 q 161 412 161 157 q 126 784 161 667 q -7 963 92 901 l 35 1029 z "},"*":{"ha":419,"x_min":15,"x_max":419,"o":"m 15 746 l 36 847 l 174 768 l 181 901 l 282 913 l 250 756 l 378 792 l 419 699 l 263 681 l 336 571 l 260 501 l 193 646 l 111 542 l 24 592 l 140 700 l 15 746 z "},"+":{"ha":590,"x_min":24,"x_max":567,"o":"m 225 425 l 225 629 l 364 642 l 364 425 l 567 425 l 556 299 l 364 299 l 364 96 l 225 83 l 225 299 l 24 299 l 35 425 l 225 425 z "},",":{"ha":285,"x_min":0,"x_max":229,"o":"m 229 93 q 57 -157 229 -25 l 0 -115 q 82 50 82 -19 q 46 160 82 93 l 182 214 q 229 93 229 154 z "},"-":{"ha":375,"x_min":18,"x_max":357,"o":"m 29 269 l 18 396 l 346 454 l 357 328 l 29 269 z "},".":{"ha":285,"x_min":42,"x_max":243,"o":"m 42 93 q 42 115 42 93 q 74 172 42 138 q 153 206 107 206 q 243 114 243 206 q 210 26 243 61 q 134 -8 178 -8 q 66 20 90 -8 q 42 93 42 49 z "},"/":{"ha":419,"x_min":13,"x_max":439,"o":"m 138 -185 l 13 -162 l 314 1053 l 439 1031 l 138 -185 z "},":":{"ha":285,"x_min":42,"x_max":243,"o":"m 42 93 q 42 115 42 93 q 74 172 42 138 q 153 206 107 206 q 243 114 243 206 q 210 26 243 61 q 134 -8 178 -8 q 66 20 90 -8 q 42 93 42 49 m 42 458 q 42 481 42 458 q 74 537 42 503 q 153 571 107 571 q 243 479 243 571 q 210 392 243 426 q 134 357 178 357 q 66 385 90 357 q 42 458 42 414 z "},";":{"ha":285,"x_min":0,"x_max":243,"o":"m 42 458 q 42 481 42 458 q 74 537 42 503 q 153 571 107 571 q 243 479 243 571 q 210 392 243 426 q 134 357 178 357 q 66 385 90 357 q 42 458 42 414 m 229 93 q 57 -157 229 -25 l 0 -115 q 82 50 82 -19 q 46 160 82 93 l 182 214 q 229 93 229 154 z "},"<":{"ha":549,"x_min":29,"x_max":465,"o":"m 29 350 l 372 660 l 454 567 l 226 356 l 465 149 l 376 50 l 29 350 z "},"=":{"ha":590,"x_min":24,"x_max":567,"o":"m 24 415 l 35 542 l 567 542 l 556 415 l 24 415 m 24 179 l 35 306 l 567 306 l 556 179 l 24 179 z "},">":{"ha":549,"x_min":83,"x_max":519,"o":"m 519 360 l 176 50 l 94 143 l 322 354 l 83 561 l 172 660 l 519 360 z "},"?":{"ha":492,"x_min":0,"x_max":492,"o":"m 108 91 q 108 114 108 91 q 142 172 108 138 q 219 206 175 206 q 287 181 264 206 q 310 110 310 157 q 278 27 310 63 q 202 -8 246 -8 q 133 18 158 -8 q 108 91 108 44 m 306 664 q 0 817 306 810 l 69 972 q 383 885 275 954 q 492 700 492 815 q 229 343 492 540 l 122 439 q 306 664 306 557 z "},"@":{"ha":990,"x_min":42,"x_max":963,"o":"m 496 139 q 362 191 414 139 q 310 331 310 243 q 390 484 310 419 q 586 549 471 549 l 681 549 l 681 574 q 644 676 681 643 q 528 708 607 708 q 265 610 361 708 q 169 348 169 513 q 278 72 169 183 q 556 -39 388 -39 q 742 -11 646 -39 q 889 44 839 17 l 940 74 l 963 -68 q 903 -99 942 -81 q 749 -149 864 -118 q 524 -181 635 -181 q 174 -40 307 -181 q 42 330 42 100 q 193 710 42 560 q 579 861 344 861 q 771 797 703 861 q 839 618 839 733 l 839 371 q 888 197 839 274 l 740 135 q 689 254 706 201 q 496 139 613 139 m 554 281 q 681 338 610 281 l 681 431 q 561 447 607 447 q 474 369 474 447 q 496 305 474 329 q 554 281 518 281 z "},"A":{"ha":893,"x_min":21,"x_max":872,"o":"m 672 -7 l 604 264 l 272 264 l 199 0 l 21 14 l 143 351 l 329 949 l 578 967 l 757 372 l 872 24 l 672 -7 m 453 786 l 435 786 l 315 411 l 563 411 l 453 786 z "},"B":{"ha":806,"x_min":111,"x_max":749,"o":"m 413 958 q 624 898 546 958 q 701 736 701 838 q 568 510 701 574 q 749 279 749 447 q 640 69 749 153 q 368 -15 532 -15 q 111 0 282 -15 l 128 338 l 111 958 l 413 958 m 394 413 l 282 413 l 281 361 l 290 135 q 414 128 371 128 q 528 165 488 128 q 569 272 569 201 q 528 378 569 343 q 394 413 486 413 m 363 818 l 294 818 l 286 547 l 376 547 q 485 585 447 547 q 522 694 522 624 q 363 818 522 818 z "},"C":{"ha":765,"x_min":42,"x_max":761,"o":"m 407 -15 q 147 114 253 -15 q 42 431 42 243 q 169 817 42 660 q 481 974 296 974 q 615 959 553 974 q 703 929 676 944 l 728 914 l 633 721 q 543 773 601 749 q 438 797 485 797 q 284 718 342 797 q 226 492 226 639 q 286 252 226 346 q 449 158 346 158 q 569 200 515 158 q 646 311 624 242 l 761 244 q 621 53 715 122 q 407 -15 526 -15 z "},"D":{"ha":922,"x_min":111,"x_max":881,"o":"m 396 -15 q 111 0 297 -15 l 128 338 l 111 958 l 482 958 q 775 846 669 958 q 881 533 881 733 q 750 133 881 281 q 396 -15 619 -15 m 432 808 q 303 807 340 808 l 289 361 l 299 136 q 456 128 415 128 q 628 217 565 128 q 692 475 692 306 q 630 726 692 644 q 432 808 568 808 z "},"E":{"ha":683,"x_min":111,"x_max":635,"o":"m 111 0 l 128 338 l 111 958 l 632 958 l 617 810 l 304 810 l 296 564 l 574 564 l 558 417 l 290 417 l 289 361 l 299 147 l 635 147 l 619 0 l 111 0 z "},"F":{"ha":614,"x_min":111,"x_max":614,"o":"m 599 810 l 303 810 l 294 554 l 560 554 l 544 407 l 290 407 l 289 361 l 306 0 l 111 0 l 128 338 l 111 958 l 614 958 l 599 810 z "},"G":{"ha":883,"x_min":42,"x_max":797,"o":"m 446 -15 q 153 107 264 -15 q 42 431 42 229 q 181 817 42 660 q 522 974 319 974 q 672 959 603 974 q 769 929 740 944 l 797 914 l 717 721 q 604 773 675 749 q 479 797 533 797 q 299 718 367 797 q 231 508 231 639 q 295 233 231 332 q 475 135 360 135 q 617 156 550 135 l 617 371 l 438 371 l 451 511 l 785 511 l 772 285 l 782 44 q 446 -15 578 -15 z "},"H":{"ha":958,"x_min":111,"x_max":847,"o":"m 847 965 l 828 361 l 844 0 l 650 0 l 667 338 l 664 411 l 290 411 l 289 361 l 306 0 l 111 0 l 128 338 l 111 931 l 308 965 l 294 558 l 660 558 l 650 931 l 847 965 z "},"I":{"ha":419,"x_min":111,"x_max":308,"o":"m 308 965 l 289 361 l 306 0 l 111 0 l 128 338 l 111 931 l 308 965 z "},"J":{"ha":490,"x_min":0,"x_max":396,"o":"m 114 -14 q 0 -1 57 -14 l 44 165 q 133 150 90 150 q 218 290 218 150 l 199 931 l 396 965 l 376 339 q 303 87 376 188 q 114 -14 229 -14 z "},"K":{"ha":803,"x_min":111,"x_max":808,"o":"m 308 965 l 293 513 l 647 963 l 789 868 l 469 497 l 808 96 l 631 -15 l 292 464 l 289 361 l 306 0 l 111 0 l 128 338 l 111 931 l 308 965 z "},"L":{"ha":592,"x_min":111,"x_max":583,"o":"m 111 0 l 128 338 l 111 931 l 308 965 l 289 361 l 299 136 l 583 158 l 568 0 l 111 0 z "},"M":{"ha":1038,"x_min":90,"x_max":954,"o":"m 514 433 l 528 433 l 731 961 l 922 956 l 928 358 l 954 0 l 767 0 l 774 361 l 758 726 l 592 267 l 421 258 l 265 726 l 253 361 l 263 0 l 90 0 l 110 338 l 118 933 l 339 968 l 514 433 z "},"N":{"ha":957,"x_min":111,"x_max":846,"o":"m 846 961 l 828 361 l 843 31 l 679 -4 l 265 665 l 265 361 l 285 0 l 111 0 l 128 338 l 111 954 l 278 963 l 690 283 l 676 940 l 846 961 z "},"O":{"ha":918,"x_min":42,"x_max":876,"o":"m 500 972 q 770 847 664 972 q 876 529 876 722 q 750 135 876 285 q 418 -15 624 -15 q 150 113 258 -15 q 42 431 42 242 q 171 819 42 667 q 500 972 300 972 m 688 451 q 457 803 688 803 q 291 724 351 803 q 231 490 231 646 q 295 233 231 333 q 466 132 360 132 q 630 217 572 132 q 688 451 688 303 z "},"P":{"ha":707,"x_min":111,"x_max":704,"o":"m 413 958 q 625 883 546 958 q 704 675 704 807 q 604 449 704 543 q 360 356 504 356 l 281 356 l 297 0 l 111 0 l 128 338 l 111 958 l 413 958 m 363 818 l 294 818 l 285 490 l 379 490 q 487 536 449 490 q 525 667 525 582 q 363 818 525 818 z "},"Q":{"ha":944,"x_min":42,"x_max":921,"o":"m 500 972 q 770 847 664 972 q 876 529 876 722 q 738 140 876 304 l 921 -78 l 783 -179 l 624 43 q 418 -15 526 -15 q 150 113 258 -15 q 42 431 42 242 q 171 819 42 667 q 500 972 300 972 m 688 451 q 457 803 688 803 q 291 724 351 803 q 231 490 231 646 q 295 233 231 333 q 472 132 360 132 q 550 149 514 132 l 385 381 l 481 447 l 647 249 q 688 451 688 333 z "},"R":{"ha":804,"x_min":111,"x_max":774,"o":"m 360 369 l 281 369 l 281 361 l 297 0 l 111 0 l 128 338 l 111 958 l 413 958 q 625 886 546 958 q 704 694 704 814 q 658 530 704 604 q 532 413 611 456 l 774 71 l 606 -15 l 389 371 q 360 369 379 369 m 363 818 l 294 818 l 285 504 l 379 504 q 487 550 449 504 q 525 681 525 596 q 363 818 525 818 z "},"S":{"ha":699,"x_min":18,"x_max":664,"o":"m 126 276 q 363 158 244 158 q 460 187 424 158 q 497 260 497 215 q 453 337 497 306 q 345 392 408 368 q 219 445 282 415 q 113 531 157 475 q 68 665 68 586 q 172 881 68 790 q 419 972 276 972 q 546 958 485 972 q 664 918 607 944 l 569 715 q 463 772 531 746 q 345 797 396 797 q 263 773 294 797 q 232 708 232 749 q 276 637 232 668 q 384 582 321 606 q 510 530 447 558 q 618 446 574 501 q 663 311 663 390 q 558 83 663 181 q 315 -15 454 -15 q 131 35 211 -15 q 31 111 60 78 l 18 126 l 126 276 z "},"T":{"ha":675,"x_min":0,"x_max":675,"o":"m 0 799 l 15 958 l 675 958 l 660 799 l 418 819 l 413 361 l 429 0 l 235 0 l 251 338 l 246 818 l 0 799 z "},"U":{"ha":904,"x_min":94,"x_max":813,"o":"m 404 -15 q 194 61 279 -15 q 108 250 108 138 l 94 931 l 294 965 l 272 357 q 317 206 272 260 q 457 151 363 151 q 593 204 551 151 q 635 386 635 257 l 618 931 l 813 965 l 797 354 q 688 88 797 190 q 404 -15 578 -15 z "},"V":{"ha":832,"x_min":21,"x_max":811,"o":"m 411 174 l 428 174 l 497 413 l 643 967 l 811 942 l 646 390 l 538 11 l 281 -7 l 182 364 l 21 932 l 218 967 l 344 431 l 411 174 z "},"W":{"ha":1285,"x_min":24,"x_max":1261,"o":"m 890 174 l 906 174 l 971 413 l 1104 967 l 1261 942 l 1110 390 l 1017 11 l 763 -7 l 683 364 l 636 547 l 594 390 l 501 11 l 251 -7 l 168 364 l 24 932 l 204 967 l 317 431 l 379 174 l 394 174 l 468 431 l 569 806 l 538 932 l 721 967 l 831 431 l 890 174 z "},"X":{"ha":831,"x_min":17,"x_max":814,"o":"m 643 -12 l 411 347 l 188 -14 l 38 60 l 311 476 l 17 854 l 189 967 l 413 619 l 628 972 l 774 886 l 519 490 l 814 96 l 643 -12 z "},"Y":{"ha":790,"x_min":4,"x_max":786,"o":"m 393 549 l 410 549 l 513 738 l 617 967 l 786 942 l 658 710 l 478 357 l 493 0 l 299 0 l 313 333 l 138 689 l 4 932 l 200 967 l 290 756 l 393 549 z "},"Z":{"ha":753,"x_min":31,"x_max":735,"o":"m 54 142 l 501 803 l 49 772 l 82 964 l 399 949 l 717 965 l 696 817 l 247 153 l 735 183 l 707 -8 l 372 7 l 31 -8 l 54 142 z "},"[":{"ha":386,"x_min":96,"x_max":386,"o":"m 386 -183 l 96 -200 l 108 311 l 96 1029 l 385 1013 l 385 933 l 229 914 l 229 -85 l 386 -104 l 386 -183 z "},"\\":{"ha":419,"x_min":-19,"x_max":407,"o":"m 407 -162 l 282 -185 l -19 1031 l 106 1053 l 407 -162 z "},"]":{"ha":386,"x_min":0,"x_max":290,"o":"m 290 -200 l 0 -183 l 0 -104 l 157 -85 l 157 914 l 1 933 l 1 1013 l 290 1029 l 278 311 l 290 -200 z "},"^":{"ha":590,"x_min":24,"x_max":567,"o":"m 24 415 l 35 542 l 567 542 l 556 415 l 24 415 m 24 179 l 35 306 l 567 306 l 556 179 l 24 179 z "},"_":{"ha":590,"x_min":-11,"x_max":601,"o":"m -11 -306 l 0 -182 l 601 -182 l 590 -306 l -11 -306 z "},"`":{"ha":339,"x_min":54,"x_max":388,"o":"m 54 865 l 69 1007 q 388 899 247 940 l 381 799 l 54 865 z "},"a":{"ha":651,"x_min":33,"x_max":611,"o":"m 219 0 q 85 52 138 0 q 33 192 33 104 q 114 345 33 281 q 310 410 194 410 l 404 410 l 404 433 q 376 526 404 501 q 272 551 349 551 q 197 538 240 551 q 99 497 153 525 l 58 607 q 203 682 118 649 q 344 715 289 715 q 563 504 563 715 l 563 232 q 611 58 563 154 l 464 -4 q 413 115 429 63 q 219 0 336 0 m 278 142 q 404 199 333 142 l 404 292 q 285 308 331 308 q 197 231 197 308 q 219 166 197 190 q 278 142 242 142 z "},"b":{"ha":693,"x_min":81,"x_max":658,"o":"m 449 701 q 600 621 542 701 q 658 414 658 540 q 563 116 658 232 q 317 0 468 0 q 83 22 247 0 l 97 338 l 81 1040 l 271 1075 l 253 717 l 253 567 q 290 614 268 589 q 360 670 313 639 q 449 701 407 701 m 394 521 q 253 482 331 521 l 253 361 l 261 157 q 371 150 319 150 q 504 335 504 150 q 394 521 504 521 z "},"c":{"ha":535,"x_min":36,"x_max":528,"o":"m 319 535 q 289 535 319 535 q 225 491 258 535 q 192 357 192 447 q 226 212 192 267 q 325 157 260 157 q 390 178 358 157 q 439 219 422 199 l 454 242 l 524 169 q 513 150 519 163 q 483 106 507 138 q 431 49 458 74 q 361 5 404 25 q 271 -15 318 -15 q 101 69 167 -15 q 36 290 36 154 q 135 588 36 460 q 365 715 233 715 q 446 703 406 715 q 528 667 486 692 l 431 496 q 319 535 381 535 z "},"d":{"ha":697,"x_min":35,"x_max":643,"o":"m 447 136 q 260 0 339 0 q 98 81 161 0 q 35 288 35 161 q 131 581 35 461 q 368 700 228 700 l 446 689 l 446 715 l 429 1040 l 619 1075 l 601 361 l 601 239 q 643 47 601 156 l 493 -15 q 447 136 453 68 m 190 360 q 190 315 190 360 q 223 221 190 271 q 317 171 256 171 q 446 221 379 171 l 446 521 q 322 538 363 538 q 225 493 260 538 q 190 360 190 449 z "},"e":{"ha":619,"x_min":36,"x_max":579,"o":"m 331 142 q 415 163 371 142 q 485 204 460 183 l 510 225 l 574 147 q 531 93 560 124 q 472 41 501 63 q 392 2 442 19 q 290 -15 343 -15 q 107 70 178 -15 q 36 290 36 156 q 135 588 36 460 q 365 715 233 715 q 523 658 467 715 q 579 499 579 601 q 558 360 579 438 l 531 331 l 183 299 q 331 142 207 142 m 331 572 q 228 523 269 572 q 179 397 186 474 l 415 426 q 419 479 419 458 q 331 572 419 572 z "},"f":{"ha":421,"x_min":24,"x_max":494,"o":"m 451 904 q 358 917 400 917 q 298 892 317 917 q 279 804 279 867 l 278 672 l 428 672 l 413 558 l 278 558 l 276 361 l 292 35 l 104 0 l 121 338 l 115 558 l 24 558 l 39 672 l 113 672 l 111 778 q 188 988 111 901 q 374 1075 264 1075 q 494 1063 432 1075 l 451 904 z "},"g":{"ha":706,"x_min":32,"x_max":713,"o":"m 32 -137 q 260 54 32 -15 q 206 126 206 82 q 219 163 206 144 q 260 200 233 181 l 260 211 q 101 267 160 211 q 42 415 42 322 q 140 626 42 536 q 374 715 239 715 q 475 701 408 715 q 606 688 542 688 l 713 688 l 699 567 l 594 579 q 608 488 608 539 q 584 385 608 436 q 526 304 560 335 q 458 251 492 274 q 399 210 424 228 q 375 179 375 193 q 431 133 375 153 q 630 32 578 74 q 682 -71 682 -10 q 578 -240 682 -174 q 332 -306 475 -306 q 110 -260 189 -306 q 32 -137 32 -214 m 451 446 q 421 546 451 514 q 325 578 390 578 q 199 453 199 578 q 333 329 199 329 q 451 446 451 329 m 501 -92 q 475 -45 501 -67 q 381 6 449 -24 q 241 -46 279 -22 q 203 -104 203 -69 q 241 -160 203 -139 q 347 -182 279 -182 q 458 -157 415 -182 q 501 -92 501 -132 z "},"h":{"ha":729,"x_min":81,"x_max":657,"o":"m 486 351 q 469 479 486 447 q 392 511 453 511 q 253 463 331 511 l 253 361 l 268 35 l 81 0 l 97 338 l 81 1040 l 271 1075 l 253 715 l 253 553 q 300 607 274 581 q 382 667 326 633 q 501 700 438 700 q 607 651 564 700 q 650 517 650 601 l 642 361 l 657 28 l 469 -7 l 486 351 z "},"i":{"ha":339,"x_min":71,"x_max":288,"o":"m 267 707 l 250 361 l 265 35 l 79 0 l 96 338 l 81 672 l 267 707 m 71 910 q 71 934 71 910 q 107 994 71 957 q 190 1031 143 1031 q 263 1005 238 1031 q 288 928 288 979 q 252 840 288 876 q 170 803 217 803 q 97 833 124 803 q 71 910 71 864 z "},"j":{"ha":343,"x_min":-110,"x_max":289,"o":"m 4 -306 q -110 -293 -53 -306 l -67 -135 q 22 -147 -19 -147 q 81 -117 63 -147 q 99 -7 99 -86 l 97 338 l 82 672 l 268 707 l 251 361 l 267 47 q 189 -201 267 -97 q 4 -306 111 -306 m 72 909 q 72 933 72 909 q 108 994 72 957 q 192 1031 144 1031 q 265 1005 240 1031 q 289 928 289 979 q 254 840 289 878 q 173 803 219 803 q 99 832 126 803 q 72 909 72 861 z "},"k":{"ha":669,"x_min":81,"x_max":672,"o":"m 514 -14 l 253 371 l 253 361 l 268 35 l 81 0 l 97 338 l 81 1040 l 271 1075 l 253 404 l 531 708 l 661 619 l 418 392 l 672 92 l 514 -14 z "},"l":{"ha":351,"x_min":81,"x_max":271,"o":"m 271 1075 l 253 361 l 268 35 l 81 0 l 97 338 l 81 1040 l 271 1075 z "},"m":{"ha":1115,"x_min":65,"x_max":1043,"o":"m 483 351 q 467 479 483 447 q 389 511 450 511 q 250 463 328 511 l 250 361 l 265 35 l 79 0 l 96 338 q 65 671 90 524 l 233 707 q 247 550 243 626 q 294 605 268 578 q 378 666 321 632 q 493 700 435 700 q 592 663 551 700 q 643 560 632 625 q 876 700 758 700 q 993 651 950 700 q 1036 517 1036 601 l 1028 361 l 1043 28 l 856 -7 l 872 351 q 856 479 872 447 q 779 511 839 511 q 644 465 719 511 l 639 361 l 654 28 l 467 -7 l 483 351 z "},"n":{"ha":726,"x_min":65,"x_max":654,"o":"m 483 351 q 467 479 483 447 q 389 511 450 511 q 250 463 328 511 l 250 361 l 265 35 l 79 0 l 96 338 q 65 671 90 524 l 233 707 q 247 550 243 626 q 294 605 268 578 q 378 666 321 632 q 498 700 435 700 q 604 651 561 700 q 647 517 647 601 l 639 361 l 654 28 l 467 -7 l 483 351 z "},"o":{"ha":669,"x_min":39,"x_max":631,"o":"m 39 290 q 135 592 39 468 q 359 715 231 715 q 559 632 488 715 q 631 411 631 549 q 538 106 631 228 q 306 -15 446 -15 q 115 72 190 -15 q 39 290 39 158 m 475 339 q 338 540 475 540 q 194 351 194 540 q 235 197 194 253 q 341 142 275 142 q 441 192 407 142 q 475 339 475 243 z "},"p":{"ha":696,"x_min":69,"x_max":661,"o":"m 451 701 q 601 624 540 701 q 661 414 661 546 q 566 115 661 229 q 329 0 471 0 q 264 4 300 0 l 271 -261 l 81 -296 l 99 338 l 100 338 q 69 671 94 524 l 238 707 q 251 561 246 633 q 280 599 254 568 q 356 666 306 631 q 451 701 406 701 m 397 521 q 254 481 324 521 l 254 361 l 260 163 q 374 150 335 150 q 507 335 507 150 q 397 521 507 521 z "},"q":{"ha":699,"x_min":35,"x_max":618,"o":"m 446 133 q 254 0 343 0 q 100 78 165 0 q 35 288 35 156 q 131 581 35 461 q 368 700 228 700 l 500 682 l 618 715 l 601 361 l 618 -261 l 428 -296 l 446 -15 l 446 133 m 190 365 q 317 171 190 171 q 446 221 379 171 l 446 338 l 436 524 q 322 538 350 538 q 226 495 261 538 q 190 365 190 453 z "},"r":{"ha":494,"x_min":65,"x_max":488,"o":"m 65 671 l 233 707 q 250 504 246 600 q 488 700 376 700 l 472 483 q 345 469 392 483 q 250 411 299 454 l 250 361 l 265 35 l 79 0 l 96 338 q 65 671 90 524 z "},"s":{"ha":547,"x_min":10,"x_max":518,"o":"m 290 129 q 363 193 363 129 q 331 235 363 215 q 255 274 300 254 q 165 317 210 293 q 88 385 119 342 q 57 483 57 428 q 139 646 57 576 q 328 715 221 715 q 426 703 378 715 q 518 667 474 692 l 425 497 q 400 518 415 506 q 342 551 385 531 q 267 571 300 571 q 217 556 235 571 q 200 516 200 542 q 248 465 200 490 q 353 417 296 439 q 458 347 410 396 q 506 229 506 297 q 426 58 506 132 q 242 -15 346 -15 q 117 14 175 -15 q 35 72 60 43 l 10 101 l 119 229 q 143 201 128 218 q 203 157 158 185 q 290 129 249 129 z "},"t":{"ha":493,"x_min":39,"x_max":472,"o":"m 135 672 l 135 824 l 322 860 l 304 672 l 472 672 l 457 558 l 299 558 l 292 268 q 304 181 292 203 q 350 160 317 160 q 439 175 383 160 l 447 76 q 286 0 356 0 q 172 51 217 0 q 128 183 128 101 l 136 339 l 135 558 l 39 558 l 54 672 l 135 672 z "},"u":{"ha":708,"x_min":72,"x_max":664,"o":"m 247 0 q 126 49 172 0 q 79 179 79 99 l 88 339 l 72 672 l 258 707 l 240 285 q 262 197 240 225 q 331 169 283 169 q 461 217 378 169 l 461 300 l 446 665 l 633 700 l 617 353 l 618 239 q 664 60 618 150 l 519 -4 q 464 140 474 86 q 247 0 339 0 z "},"v":{"ha":639,"x_min":17,"x_max":628,"o":"m 317 174 l 335 174 l 381 364 l 456 707 l 628 686 l 524 342 l 436 17 l 199 -4 l 117 333 l 17 671 l 206 706 l 265 400 l 317 174 z "},"w":{"ha":1015,"x_min":17,"x_max":1004,"o":"m 700 174 l 718 174 l 763 364 l 835 707 l 1004 686 l 903 342 l 818 17 l 590 -4 l 514 333 l 507 356 l 414 17 l 193 -4 l 113 333 l 17 671 l 199 706 l 256 400 l 306 174 l 324 174 l 443 569 l 414 671 l 593 706 l 651 400 l 700 174 z "},"x":{"ha":657,"x_min":17,"x_max":644,"o":"m 490 -14 l 325 232 l 154 -14 l 17 63 l 235 344 l 28 600 l 182 706 l 333 471 l 497 708 l 632 625 l 425 356 l 644 92 l 490 -14 z "},"y":{"ha":646,"x_min":0,"x_max":642,"o":"m 100 -268 l 243 53 l 140 333 l 0 671 l 185 706 l 274 410 l 319 269 l 338 269 l 371 371 l 471 707 l 642 686 l 396 40 l 279 -306 l 100 -268 z "},"z":{"ha":579,"x_min":33,"x_max":564,"o":"m 57 138 l 350 556 l 43 535 l 75 710 l 313 694 l 544 711 l 521 567 l 226 147 l 564 167 l 533 -8 l 297 7 l 33 -8 l 57 138 z "},"{":{"ha":386,"x_min":35,"x_max":365,"o":"m 49 456 q 115 486 96 467 q 135 541 135 506 q 105 676 135 576 q 75 810 75 776 q 147 972 75 919 q 365 1025 218 1025 l 351 922 q 243 902 271 922 q 215 828 215 882 q 240 699 215 774 q 264 576 264 625 q 241 481 264 526 q 182 413 218 435 q 241 344 218 390 q 264 249 264 299 q 240 126 264 200 q 215 -3 215 51 q 246 -77 215 -57 q 365 -97 276 -97 l 351 -200 q 143 -147 211 -200 q 75 15 75 -94 q 105 149 75 49 q 135 283 135 249 q 35 369 135 360 l 49 456 z "},"|":{"ha":349,"x_min":111,"x_max":238,"o":"m 111 1046 l 238 1057 l 238 -189 l 111 -200 l 111 1046 z "},"}":{"ha":386,"x_min":21,"x_max":351,"o":"m 271 338 q 261 328 271 338 q 251 283 251 318 q 281 149 251 249 q 311 15 311 49 q 240 -147 311 -94 q 21 -200 168 -200 l 35 -97 q 143 -77 115 -97 q 171 -3 171 -57 q 147 126 171 51 q 122 249 122 200 q 145 343 122 297 q 204 413 168 389 q 145 480 168 435 q 122 575 122 525 q 147 699 122 625 q 171 828 171 774 q 140 902 171 882 q 21 922 110 922 l 35 1025 q 243 972 175 1025 q 311 810 311 919 q 281 676 311 776 q 251 542 251 576 q 351 456 251 465 l 338 369 q 271 338 290 357 z "},"~":{"ha":590,"x_min":22,"x_max":567,"o":"m 182 450 l 422 392 l 528 453 l 567 390 q 478 308 524 344 q 407 271 432 271 l 167 329 l 61 268 l 22 331 q 111 413 65 376 q 182 450 157 450 z "}," ":{"ha":214,"x_min":0,"x_max":0,"o":""},"¡":{"ha":343,"x_min":28,"x_max":288,"o":"m 288 616 q 288 593 288 616 q 254 535 288 569 q 176 501 221 501 q 109 526 132 501 q 86 597 86 550 q 118 680 86 644 q 194 715 150 715 q 263 689 238 715 q 288 616 288 663 m 28 -265 l 106 350 l 238 369 l 238 -231 l 28 -265 z "},"¢":{"ha":513,"x_min":39,"x_max":506,"o":"m 39 313 q 122 578 39 461 q 319 713 204 696 l 346 894 l 411 892 l 385 713 q 506 669 450 704 l 413 507 q 358 535 390 524 l 308 185 l 313 185 q 376 205 344 185 q 422 244 407 225 l 436 265 l 501 197 q 471 148 496 182 q 422 92 446 114 q 285 24 358 31 l 256 -175 l 190 -171 l 219 26 q 88 120 138 43 q 39 313 39 197 m 186 389 q 246 206 186 253 l 294 543 q 215 498 243 539 q 186 389 186 457 z "},"£":{"ha":651,"x_min":22,"x_max":651,"o":"m 218 151 l 250 153 q 367 136 301 153 q 459 119 432 119 q 524 134 486 119 q 606 178 561 149 l 651 74 q 510 -21 582 4 q 439 -32 478 -32 q 325 -3 400 -32 q 211 26 250 26 q 22 -15 144 26 l 43 117 q 115 182 93 150 q 163 324 163 251 l 153 388 l 61 388 l 76 501 l 138 501 l 125 592 q 213 813 125 722 q 429 903 301 903 q 606 882 499 903 l 563 724 q 414 744 478 744 q 322 715 350 744 q 293 618 293 686 l 304 501 l 532 501 l 517 388 l 314 388 l 318 347 q 218 151 318 235 z "},"¤":{"ha":650,"x_min":13,"x_max":642,"o":"m 129 258 q 104 360 104 304 q 132 464 104 417 l 13 581 l 125 661 l 222 556 q 323 581 269 581 q 426 556 376 581 l 538 679 l 622 563 l 517 465 q 546 360 546 415 q 519 258 546 304 l 642 144 l 525 61 l 428 167 q 324 139 381 139 q 217 168 268 139 l 106 44 l 22 164 l 129 258 m 245 439 q 229 422 245 439 q 213 360 213 406 q 245 281 213 314 q 324 247 278 247 q 403 281 369 247 q 438 360 438 314 q 403 439 438 406 q 324 472 369 472 q 245 439 278 472 z "},"¥":{"ha":790,"x_min":21,"x_max":767,"o":"m 729 275 l 724 210 l 483 210 l 493 0 l 299 0 l 308 210 l 58 210 l 65 275 l 311 275 l 313 303 l 274 382 l 58 382 l 65 447 l 240 447 l 156 619 l 21 863 l 217 897 l 308 686 l 393 518 l 410 518 l 489 668 l 597 897 l 767 872 l 635 640 l 538 447 l 729 447 l 724 382 l 506 382 l 478 326 l 479 275 l 729 275 z "},"¦":{"ha":349,"x_min":111,"x_max":238,"o":"m 111 1046 l 238 1057 l 238 594 l 111 583 l 111 1046 m 111 260 l 238 271 l 238 -189 l 111 -200 l 111 260 z "},"§":{"ha":592,"x_min":18,"x_max":556,"o":"m 143 25 q 151 17 143 25 q 207 -19 160 8 q 290 -47 254 -47 q 345 -33 326 -47 q 364 7 364 -18 q 330 57 364 32 q 247 104 296 82 q 148 153 197 126 q 65 226 99 181 q 31 328 31 271 q 156 535 31 449 q 83 683 83 594 q 157 838 83 772 q 342 903 231 903 q 434 891 388 903 q 529 854 481 879 l 450 685 q 286 758 361 758 q 240 745 257 758 q 224 710 224 732 q 258 664 224 688 q 340 618 292 640 q 438 569 389 596 q 522 497 488 542 q 556 393 556 451 q 436 182 556 278 q 504 35 504 124 q 432 -123 504 -54 q 257 -192 360 -192 q 133 -162 193 -192 q 46 -104 74 -133 l 18 -75 l 117 53 q 143 25 126 42 m 172 369 q 211 310 172 336 q 292 266 247 286 q 354 236 336 246 q 415 350 415 301 q 376 411 415 385 q 301 453 349 431 q 238 483 254 475 q 172 369 172 422 z "},"¨":{"ha":339,"x_min":-32,"x_max":371,"o":"m -32 911 q -32 931 -32 911 q -3 981 -32 950 q 65 1011 26 1011 q 125 990 104 1011 q 146 926 146 968 q 117 853 146 883 q 49 822 88 822 q -10 847 11 822 q -32 911 -32 872 m 193 911 q 193 931 193 911 q 222 981 193 950 q 292 1011 251 1011 q 371 931 371 1011 q 342 853 371 883 q 276 822 314 822 q 215 847 238 822 q 193 911 193 872 z "},"©":{"ha":1057,"x_min":28,"x_max":1028,"o":"m 174 828 q 248 900 174 828 q 528 972 321 972 q 881 828 735 972 q 1028 479 1028 683 q 881 130 1028 275 q 528 -15 735 -15 q 174 130 321 -15 q 28 479 28 275 q 174 828 28 683 m 528 68 q 613 68 528 68 q 817 188 697 68 q 936 478 936 308 q 817 769 936 649 q 528 889 697 889 q 239 769 358 889 q 119 478 119 649 q 239 188 119 308 q 528 68 358 68 m 521 204 q 374 276 433 204 q 314 467 314 349 q 385 674 314 586 q 561 763 457 763 q 636 754 601 763 q 700 729 671 746 l 649 619 q 541 663 597 663 q 453 618 485 663 q 421 491 421 574 q 453 356 421 408 q 543 304 486 304 q 610 327 579 304 q 654 388 640 350 l 719 350 q 640 242 692 281 q 521 204 588 204 z "},"ª":{"ha":485,"x_min":22,"x_max":460,"o":"m 164 439 q 61 476 100 439 q 22 576 22 513 q 83 685 22 639 q 231 731 143 731 l 296 731 l 296 743 q 276 805 296 789 q 218 821 257 821 q 71 782 157 821 l 39 867 q 257 942 161 942 q 422 792 422 942 l 422 604 q 460 481 422 549 l 343 435 q 306 515 319 478 q 164 439 249 439 m 151 603 q 167 561 151 578 q 214 544 183 544 q 296 583 244 544 l 296 642 q 213 651 240 651 q 151 603 151 651 z "},"«":{"ha":607,"x_min":10,"x_max":586,"o":"m 176 368 l 322 179 l 242 113 l 10 358 l 242 618 l 322 551 l 176 368 m 440 368 l 586 179 l 506 113 l 274 358 l 506 618 l 586 551 l 440 368 z "},"¬":{"ha":590,"x_min":0,"x_max":515,"o":"m 515 467 l 515 124 l 376 111 l 376 340 l 0 340 l 11 467 l 515 467 z "},"®":{"ha":592,"x_min":28,"x_max":564,"o":"m 28 703 q 28 758 28 703 q 106 890 28 813 q 295 968 185 968 q 485 890 406 968 q 564 703 564 813 q 485 516 564 594 q 295 438 406 438 q 106 516 185 438 q 28 703 28 594 m 294 506 q 335 506 294 506 q 435 563 376 506 q 493 703 493 621 q 435 844 493 786 q 295 901 376 901 q 156 844 214 901 q 99 703 99 786 q 156 563 99 621 q 294 506 213 506 m 300 861 q 368 838 342 861 q 394 778 394 814 q 346 693 394 722 l 418 594 l 356 563 l 290 676 l 268 676 l 274 569 l 204 569 l 208 674 l 204 861 l 300 861 m 286 807 l 274 807 l 269 729 l 292 729 q 326 772 326 729 q 286 807 326 807 z "},"¯":{"ha":339,"x_min":0,"x_max":339,"o":"m 0 838 l 11 956 l 339 956 l 328 838 l 0 838 z "},"°":{"ha":404,"x_min":28,"x_max":376,"o":"m 28 800 q 28 835 28 800 q 79 922 28 871 q 202 972 131 972 q 325 922 274 972 q 376 800 376 871 q 325 678 376 729 q 202 628 274 628 q 79 678 131 628 q 28 800 28 729 m 201 708 q 219 708 201 708 q 265 735 238 708 q 293 799 293 763 q 266 863 293 836 q 202 890 239 890 q 138 863 165 890 q 111 799 111 836 q 138 735 111 763 q 201 708 165 708 z "},"±":{"ha":590,"x_min":24,"x_max":567,"o":"m 225 425 l 225 629 l 364 642 l 364 425 l 567 425 l 556 299 l 364 299 l 364 96 l 225 83 l 225 299 l 24 299 l 35 425 l 225 425 m 24 -126 l 35 0 l 567 0 l 556 -126 l 24 -126 z "},"²":{"ha":526,"x_min":21,"x_max":500,"o":"m 304 893 q 292 924 304 915 q 247 932 281 932 q 165 916 213 932 q 63 869 118 900 l 54 869 l 42 878 l 68 1017 l 72 1022 q 266 1075 178 1075 q 408 1031 354 1075 q 463 915 463 988 q 361 718 463 822 l 215 575 l 500 590 l 481 440 l 265 449 l 21 442 l 40 558 l 247 786 q 304 893 304 847 z "},"³":{"ha":506,"x_min":11,"x_max":464,"o":"m 69 1047 q 238 1075 154 1075 q 378 1033 322 1075 q 435 925 435 990 q 356 793 435 839 q 464 647 464 743 q 392 494 464 551 q 213 436 321 436 q 113 450 161 436 q 17 490 64 464 l 11 501 l 54 618 l 68 622 l 74 621 q 221 557 147 557 q 292 575 265 557 q 319 621 319 593 q 194 707 319 707 l 96 707 l 118 822 l 182 822 q 283 897 283 822 q 262 941 283 925 q 208 957 240 957 q 81 924 146 957 l 60 913 l 53 913 l 42 921 l 61 1039 l 67 1046 l 69 1047 z "},"´":{"ha":339,"x_min":-43,"x_max":290,"o":"m 275 1007 l 290 865 q -36 799 108 824 l -43 899 q 275 1007 76 933 z "},"µ":{"ha":724,"x_min":88,"x_max":679,"o":"m 256 285 q 278 193 256 217 q 347 169 300 169 q 476 217 393 169 l 476 300 l 461 665 l 649 700 l 632 353 l 633 239 q 679 60 633 150 l 535 -4 q 479 140 489 86 q 431 91 458 117 q 349 33 404 65 q 247 0 293 0 l 261 -262 l 92 -296 l 103 339 l 88 672 l 274 707 l 256 285 z "},"¶":{"ha":714,"x_min":10,"x_max":619,"o":"m 354 356 q 110 449 210 356 q 10 675 10 543 q 89 883 10 807 q 301 958 168 958 l 336 958 l 354 356 m 338 -14 q 224 -1 281 -14 l 268 165 q 356 150 314 150 q 442 290 442 150 l 422 931 l 619 965 l 600 339 q 526 87 600 188 q 338 -14 453 -14 z "},"·":{"ha":285,"x_min":42,"x_max":243,"o":"m 42 354 q 42 376 42 354 q 74 433 42 399 q 153 467 107 467 q 243 375 243 467 q 210 288 243 322 q 134 253 178 253 q 66 281 90 253 q 42 354 42 310 z "},"¸":{"ha":339,"x_min":61,"x_max":306,"o":"m 186 -174 q 90 -118 186 -131 l 119 28 l 206 28 l 190 -56 q 276 -97 246 -69 q 306 -160 306 -124 q 249 -253 306 -211 q 106 -306 192 -294 l 61 -244 q 186 -174 186 -222 z "},"¹":{"ha":410,"x_min":8,"x_max":306,"o":"m 306 1081 l 292 700 l 303 446 l 142 446 l 153 685 l 144 903 l 8 901 l 8 985 l 306 1081 z "},"º":{"ha":501,"x_min":26,"x_max":472,"o":"m 26 643 q 99 855 26 768 q 268 942 171 942 q 419 884 365 942 q 472 728 472 826 q 403 513 472 599 q 237 428 333 428 q 83 489 140 428 q 26 643 26 550 m 251 813 q 150 686 150 813 q 178 583 150 621 q 254 544 207 544 q 349 678 349 544 q 251 813 349 813 z "},"»":{"ha":607,"x_min":21,"x_max":597,"o":"m 167 363 l 21 551 l 101 618 l 333 372 l 101 113 l 21 179 l 167 363 m 431 363 l 285 551 l 365 618 l 597 372 l 365 113 l 285 179 l 431 363 z "},"¼":{"ha":1188,"x_min":13,"x_max":1143,"o":"m 310 976 l 296 596 l 307 342 l 146 342 l 157 581 l 149 799 l 13 797 l 13 881 l 310 976 m 644 247 l 882 604 l 1063 626 l 1047 263 l 1143 267 l 1132 147 l 1054 150 l 1060 0 l 899 0 l 908 151 l 635 150 l 644 247 m 906 450 l 786 264 l 910 265 l 906 450 m 313 -165 l 203 -121 l 788 1053 l 897 1008 l 313 -165 z "},"½":{"ha":1204,"x_min":13,"x_max":1174,"o":"m 310 976 l 296 596 l 307 342 l 146 342 l 157 581 l 149 799 l 13 797 l 13 881 l 310 976 m 978 447 q 966 478 978 469 q 920 486 954 486 q 839 471 886 486 q 736 424 792 456 l 728 424 l 715 432 l 742 571 l 746 576 q 940 629 851 629 q 1082 585 1028 629 q 1136 469 1136 542 q 1035 272 1136 376 l 889 129 l 1174 144 l 1154 -6 l 939 3 l 694 -4 l 714 113 l 921 340 q 978 447 978 401 m 313 -165 l 203 -121 l 788 1053 l 897 1008 l 313 -165 z "},"¾":{"ha":1228,"x_min":15,"x_max":1183,"o":"m 685 247 l 922 604 l 1103 626 l 1088 263 l 1183 267 l 1172 147 l 1094 150 l 1100 0 l 939 0 l 949 151 l 675 150 l 685 247 m 74 943 q 242 971 158 971 q 383 928 326 971 q 439 821 439 886 q 360 689 439 735 q 468 543 468 639 q 397 390 468 447 q 217 332 325 332 q 117 345 165 332 q 21 386 68 358 l 15 397 l 58 514 l 72 518 l 78 517 q 225 453 151 453 q 297 471 269 453 q 324 517 324 489 q 199 603 324 603 l 100 603 l 122 718 l 186 718 q 288 793 288 718 q 266 837 288 821 q 213 853 244 853 q 86 819 150 853 l 64 808 l 57 808 l 46 817 l 65 935 l 71 942 l 74 943 m 353 -165 l 243 -121 l 828 1053 l 938 1008 l 353 -165 m 946 450 l 826 264 l 950 265 l 946 450 z "},"¿":{"ha":492,"x_min":0,"x_max":492,"o":"m 383 616 q 383 593 383 616 q 350 535 383 569 q 272 501 317 501 q 205 526 228 501 q 182 597 182 550 q 214 680 182 644 q 290 715 246 715 q 358 689 333 715 q 383 616 383 663 m 186 43 q 492 -110 186 -103 l 422 -265 q 108 -178 217 -247 q 0 7 0 -108 q 263 364 0 165 l 369 268 q 186 43 186 150 z "},"À":{"ha":893,"x_min":21,"x_max":872,"o":"m 672 -7 l 604 264 l 272 264 l 199 0 l 21 14 l 143 351 l 329 949 l 578 967 l 757 372 l 872 24 l 672 -7 m 453 786 l 435 786 l 315 411 l 563 411 l 453 786 m 283 1122 l 299 1264 q 617 1156 476 1197 l 610 1056 l 283 1122 z "},"Á":{"ha":893,"x_min":21,"x_max":872,"o":"m 672 -7 l 604 264 l 272 264 l 199 0 l 21 14 l 143 351 l 329 949 l 578 967 l 757 372 l 872 24 l 672 -7 m 453 786 l 435 786 l 315 411 l 563 411 l 453 786 m 601 1264 l 617 1122 q 290 1056 435 1081 l 283 1156 q 601 1264 403 1190 z "},"Â":{"ha":893,"x_min":21,"x_max":872,"o":"m 672 -7 l 604 264 l 272 264 l 199 0 l 21 14 l 143 351 l 329 949 l 578 967 l 757 372 l 872 24 l 672 -7 m 453 786 l 435 786 l 315 411 l 563 411 l 453 786 m 447 1043 l 247 1161 l 268 1247 l 447 1182 l 629 1247 l 650 1161 l 447 1043 z "},"Ã":{"ha":893,"x_min":21,"x_max":872,"o":"m 672 -7 l 604 264 l 272 264 l 199 0 l 21 14 l 143 351 l 329 949 l 578 967 l 757 372 l 872 24 l 672 -7 m 639 1233 l 678 1174 q 597 1090 639 1126 q 532 1054 554 1054 q 440 1083 511 1057 q 347 1113 368 1110 l 256 1054 l 217 1114 q 298 1197 256 1161 q 363 1233 340 1233 q 455 1204 383 1231 q 547 1175 526 1178 l 639 1233 m 453 786 l 435 786 l 315 411 l 563 411 l 453 786 z "},"Ä":{"ha":893,"x_min":21,"x_max":872,"o":"m 672 -7 l 604 264 l 272 264 l 199 0 l 21 14 l 143 351 l 329 949 l 578 967 l 757 372 l 872 24 l 672 -7 m 453 786 l 435 786 l 315 411 l 563 411 l 453 786 m 471 1168 q 471 1188 471 1168 q 500 1238 471 1207 q 569 1268 529 1268 q 649 1188 649 1268 q 620 1110 649 1140 q 553 1079 592 1079 q 493 1104 515 1079 q 471 1168 471 1129 m 246 1168 q 246 1188 246 1168 q 275 1238 246 1207 q 343 1268 304 1268 q 403 1247 382 1268 q 424 1183 424 1225 q 394 1110 424 1140 q 327 1079 365 1079 q 267 1104 289 1079 q 246 1168 246 1129 z "},"Å":{"ha":893,"x_min":21,"x_max":872,"o":"m 672 -7 l 604 264 l 272 264 l 199 0 l 21 14 l 143 351 l 329 949 l 578 967 l 757 372 l 872 24 l 672 -7 m 292 1170 q 292 1204 292 1170 q 338 1285 292 1238 q 451 1332 383 1332 q 561 1293 519 1332 q 603 1183 603 1254 q 557 1064 603 1113 q 444 1015 511 1015 q 335 1059 378 1015 q 292 1170 292 1103 m 453 786 l 435 786 l 315 411 l 563 411 l 453 786 m 521 1178 q 521 1196 521 1178 q 501 1234 521 1214 q 449 1254 482 1254 q 395 1231 417 1254 q 374 1174 374 1208 q 394 1116 374 1139 q 445 1093 414 1093 q 499 1118 476 1093 q 521 1178 521 1143 z "},"Æ":{"ha":1185,"x_min":-7,"x_max":1125,"o":"m 642 0 l 593 264 l 261 264 l 169 0 l -7 14 l 139 351 l 371 958 l 1065 958 l 1050 810 l 639 810 l 696 564 l 1035 564 l 1019 417 l 729 417 l 799 147 l 1125 147 l 1110 0 l 642 0 m 479 786 l 461 786 l 317 411 l 563 411 l 479 786 z "},"Ç":{"ha":765,"x_min":42,"x_max":761,"o":"m 446 -174 q 350 -118 446 -131 l 371 -12 q 135 128 229 3 q 42 431 42 254 q 169 817 42 660 q 481 974 296 974 q 615 959 553 974 q 703 929 676 944 l 728 914 l 633 721 q 543 773 601 749 q 438 797 485 797 q 284 718 342 797 q 226 492 226 639 q 286 252 226 346 q 449 158 346 158 q 569 200 515 158 q 646 311 624 242 l 761 244 q 640 68 719 135 q 457 -11 560 1 l 450 -56 q 535 -97 506 -69 q 565 -160 565 -124 q 508 -253 565 -211 q 365 -306 451 -294 l 321 -244 q 446 -174 446 -222 z "},"È":{"ha":683,"x_min":111,"x_max":635,"o":"m 111 0 l 128 338 l 111 958 l 632 958 l 617 810 l 304 810 l 296 564 l 574 564 l 558 417 l 290 417 l 289 361 l 299 147 l 635 147 l 619 0 l 111 0 m 224 1122 l 239 1264 q 557 1156 417 1197 l 550 1056 l 224 1122 z "},"É":{"ha":683,"x_min":111,"x_max":635,"o":"m 111 0 l 128 338 l 111 958 l 632 958 l 617 810 l 304 810 l 296 564 l 574 564 l 558 417 l 290 417 l 289 361 l 299 147 l 635 147 l 619 0 l 111 0 m 542 1264 l 557 1122 q 231 1056 375 1081 l 224 1156 q 542 1264 342 1190 z "},"Ê":{"ha":683,"x_min":111,"x_max":635,"o":"m 388 1043 l 188 1161 l 208 1247 l 388 1182 l 569 1247 l 590 1161 l 388 1043 m 111 0 l 128 338 l 111 958 l 632 958 l 617 810 l 304 810 l 296 564 l 574 564 l 558 417 l 290 417 l 289 361 l 299 147 l 635 147 l 619 0 l 111 0 z "},"Ë":{"ha":683,"x_min":111,"x_max":635,"o":"m 111 0 l 128 338 l 111 958 l 632 958 l 617 810 l 304 810 l 296 564 l 574 564 l 558 417 l 290 417 l 289 361 l 299 147 l 635 147 l 619 0 l 111 0 m 186 1168 q 186 1188 186 1168 q 215 1238 186 1207 q 283 1268 244 1268 q 343 1247 322 1268 q 364 1183 364 1225 q 335 1110 364 1140 q 267 1079 306 1079 q 208 1104 229 1079 q 186 1168 186 1129 m 411 1168 q 411 1188 411 1168 q 440 1238 411 1207 q 508 1268 469 1268 q 589 1188 589 1268 q 560 1110 589 1140 q 494 1079 532 1079 q 433 1104 456 1079 q 411 1168 411 1129 z "},"Ì":{"ha":419,"x_min":47,"x_max":381,"o":"m 308 965 l 289 361 l 306 0 l 111 0 l 128 338 l 111 931 l 308 965 m 47 1122 l 63 1264 q 381 1156 240 1197 l 374 1056 l 47 1122 z "},"Í":{"ha":419,"x_min":47,"x_max":381,"o":"m 308 965 l 289 361 l 306 0 l 111 0 l 128 338 l 111 931 l 308 965 m 365 1264 l 381 1122 q 54 1056 199 1081 l 47 1156 q 365 1264 167 1190 z "},"Î":{"ha":419,"x_min":11,"x_max":414,"o":"m 211 1043 l 11 1161 l 32 1247 l 211 1182 l 393 1247 l 414 1161 l 211 1043 m 308 965 l 289 361 l 306 0 l 111 0 l 128 338 l 111 931 l 308 965 z "},"Ï":{"ha":419,"x_min":10,"x_max":413,"o":"m 308 965 l 289 361 l 306 0 l 111 0 l 128 338 l 111 931 l 308 965 m 10 1168 q 10 1188 10 1168 q 39 1238 10 1207 q 107 1268 68 1268 q 167 1247 146 1268 q 188 1183 188 1225 q 158 1110 188 1140 q 91 1079 129 1079 q 31 1104 53 1079 q 10 1168 10 1129 m 235 1168 q 235 1188 235 1168 q 264 1238 235 1207 q 333 1268 293 1268 q 413 1188 413 1268 q 384 1110 413 1140 q 317 1079 356 1079 q 257 1104 279 1079 q 235 1168 235 1129 z "},"Ð":{"ha":943,"x_min":6,"x_max":901,"o":"m 503 958 q 796 846 690 958 q 901 533 901 733 q 771 133 901 281 q 417 -15 640 -15 q 132 0 318 -15 l 149 338 l 146 443 l 6 443 l 13 508 l 143 508 l 132 958 l 503 958 m 476 128 q 649 217 586 128 q 713 475 713 306 q 651 726 713 644 q 453 808 589 808 q 324 807 361 808 l 314 508 l 510 508 l 504 443 l 313 443 l 310 361 l 319 136 q 476 128 436 128 z "},"Ñ":{"ha":957,"x_min":111,"x_max":846,"o":"m 846 961 l 828 361 l 843 31 l 679 -4 l 265 665 l 265 361 l 285 0 l 111 0 l 128 338 l 111 954 l 278 963 l 690 283 l 676 940 l 846 961 m 671 1233 l 710 1174 q 628 1090 671 1126 q 564 1054 586 1054 q 472 1083 543 1057 q 379 1113 400 1110 l 288 1054 l 249 1114 q 330 1197 288 1161 q 394 1233 372 1233 q 487 1204 415 1231 q 579 1175 558 1178 l 671 1233 z "},"Ò":{"ha":918,"x_min":42,"x_max":876,"o":"m 500 972 q 770 847 664 972 q 876 529 876 722 q 750 135 876 285 q 418 -15 624 -15 q 150 113 258 -15 q 42 431 42 242 q 171 819 42 667 q 500 972 300 972 m 688 451 q 457 803 688 803 q 291 724 351 803 q 231 490 231 646 q 295 233 231 333 q 466 132 360 132 q 630 217 572 132 q 688 451 688 303 m 293 1122 l 308 1264 q 626 1156 486 1197 l 619 1056 l 293 1122 z "},"Ó":{"ha":918,"x_min":42,"x_max":876,"o":"m 500 972 q 770 847 664 972 q 876 529 876 722 q 750 135 876 285 q 418 -15 624 -15 q 150 113 258 -15 q 42 431 42 242 q 171 819 42 667 q 500 972 300 972 m 688 451 q 457 803 688 803 q 291 724 351 803 q 231 490 231 646 q 295 233 231 333 q 466 132 360 132 q 630 217 572 132 q 688 451 688 303 m 611 1264 l 626 1122 q 300 1056 444 1081 l 293 1156 q 611 1264 413 1190 z "},"Ô":{"ha":918,"x_min":42,"x_max":876,"o":"m 457 1043 l 257 1161 l 278 1247 l 457 1182 l 639 1247 l 660 1161 l 457 1043 m 500 972 q 770 847 664 972 q 876 529 876 722 q 750 135 876 285 q 418 -15 624 -15 q 150 113 258 -15 q 42 431 42 242 q 171 819 42 667 q 500 972 300 972 m 688 451 q 457 803 688 803 q 291 724 351 803 q 231 490 231 646 q 295 233 231 333 q 466 132 360 132 q 630 217 572 132 q 688 451 688 303 z "},"Õ":{"ha":918,"x_min":42,"x_max":876,"o":"m 500 972 q 770 847 664 972 q 876 529 876 722 q 750 135 876 285 q 418 -15 624 -15 q 150 113 258 -15 q 42 431 42 242 q 171 819 42 667 q 500 972 300 972 m 688 451 q 457 803 688 803 q 291 724 351 803 q 231 490 231 646 q 295 233 231 333 q 466 132 360 132 q 630 217 572 132 q 688 451 688 303 m 649 1233 l 688 1174 q 606 1090 649 1126 q 542 1054 564 1054 q 449 1083 521 1057 q 357 1113 378 1110 l 265 1054 l 226 1114 q 308 1197 265 1161 q 372 1233 350 1233 q 465 1204 393 1231 q 557 1175 536 1178 l 649 1233 z "},"Ö":{"ha":918,"x_min":42,"x_max":876,"o":"m 500 972 q 770 847 664 972 q 876 529 876 722 q 750 135 876 285 q 418 -15 624 -15 q 150 113 258 -15 q 42 431 42 242 q 171 819 42 667 q 500 972 300 972 m 688 451 q 457 803 688 803 q 291 724 351 803 q 231 490 231 646 q 295 233 231 333 q 466 132 360 132 q 630 217 572 132 q 688 451 688 303 m 256 1168 q 256 1188 256 1168 q 285 1238 256 1207 q 353 1268 314 1268 q 413 1247 392 1268 q 433 1183 433 1225 q 404 1110 433 1140 q 337 1079 375 1079 q 277 1104 299 1079 q 256 1168 256 1129 m 481 1168 q 481 1188 481 1168 q 510 1238 481 1207 q 578 1268 539 1268 q 658 1188 658 1268 q 630 1110 658 1140 q 563 1079 601 1079 q 503 1104 525 1079 q 481 1168 481 1129 z "},"×":{"ha":590,"x_min":57,"x_max":532,"o":"m 149 125 l 67 222 l 201 357 l 57 501 l 146 608 l 299 454 l 443 599 l 525 501 l 389 365 l 532 222 l 443 115 l 290 267 l 149 125 z "},"Ø":{"ha":926,"x_min":46,"x_max":881,"o":"m 504 972 q 672 931 593 972 l 757 1083 l 818 1058 l 726 893 q 840 739 799 833 q 881 529 881 644 q 754 135 881 285 q 422 -15 628 -15 q 250 31 331 -15 l 157 -137 l 97 -111 l 197 69 q 86 225 126 131 q 46 431 46 319 q 175 819 46 667 q 504 972 304 972 m 485 132 q 531 132 485 132 q 634 217 576 132 q 692 467 692 303 q 631 719 692 631 l 336 186 q 485 132 394 132 m 461 803 q 295 724 356 803 q 235 494 235 646 q 293 243 235 343 l 583 768 q 461 803 535 803 z "},"Ù":{"ha":904,"x_min":94,"x_max":813,"o":"m 404 -15 q 194 61 279 -15 q 108 250 108 138 l 94 931 l 294 965 l 272 357 q 317 206 272 260 q 457 151 363 151 q 593 204 551 151 q 635 386 635 257 l 618 931 l 813 965 l 797 354 q 688 88 797 190 q 404 -15 578 -15 m 286 1122 l 301 1264 q 619 1156 479 1197 l 613 1056 l 286 1122 z "},"Ú":{"ha":904,"x_min":94,"x_max":813,"o":"m 404 -15 q 194 61 279 -15 q 108 250 108 138 l 94 931 l 294 965 l 272 357 q 317 206 272 260 q 457 151 363 151 q 593 204 551 151 q 635 386 635 257 l 618 931 l 813 965 l 797 354 q 688 88 797 190 q 404 -15 578 -15 m 604 1264 l 619 1122 q 293 1056 438 1081 l 286 1156 q 604 1264 404 1190 z "},"Û":{"ha":904,"x_min":94,"x_max":813,"o":"m 450 1043 l 250 1161 l 271 1247 l 450 1182 l 632 1247 l 653 1161 l 450 1043 m 404 -15 q 194 61 279 -15 q 108 250 108 138 l 94 931 l 294 965 l 272 357 q 317 206 272 260 q 457 151 363 151 q 593 204 551 151 q 635 386 635 257 l 618 931 l 813 965 l 797 354 q 688 88 797 190 q 404 -15 578 -15 z "},"Ü":{"ha":904,"x_min":94,"x_max":813,"o":"m 404 -15 q 194 61 279 -15 q 108 250 108 138 l 94 931 l 294 965 l 272 357 q 317 206 272 260 q 457 151 363 151 q 593 204 551 151 q 635 386 635 257 l 618 931 l 813 965 l 797 354 q 688 88 797 190 q 404 -15 578 -15 m 249 1168 q 249 1188 249 1168 q 278 1238 249 1207 q 346 1268 307 1268 q 406 1247 385 1268 q 426 1183 426 1225 q 397 1110 426 1140 q 330 1079 368 1079 q 270 1104 292 1079 q 249 1168 249 1129 m 474 1168 q 474 1188 474 1168 q 503 1238 474 1207 q 572 1268 532 1268 q 651 1188 651 1268 q 623 1110 651 1140 q 556 1079 594 1079 q 496 1104 518 1079 q 474 1168 474 1129 z "},"Ý":{"ha":790,"x_min":4,"x_max":786,"o":"m 393 549 l 410 549 l 513 738 l 617 967 l 786 942 l 658 710 l 478 357 l 493 0 l 299 0 l 313 333 l 138 689 l 4 932 l 200 967 l 290 756 l 393 549 m 553 1264 l 568 1122 q 242 1056 386 1081 l 235 1156 q 553 1264 354 1190 z "},"Þ":{"ha":707,"x_min":104,"x_max":697,"o":"m 406 789 q 618 713 539 789 q 697 506 697 638 q 597 280 697 374 q 353 186 497 186 l 282 186 l 290 0 l 104 0 l 121 338 l 104 958 l 293 958 l 288 789 l 406 789 m 356 649 l 282 649 l 274 361 l 275 321 l 372 321 q 480 367 442 321 q 518 497 518 413 q 356 649 518 649 z "},"ß":{"ha":843,"x_min":24,"x_max":843,"o":"m 111 778 q 205 989 111 903 q 427 1075 299 1075 q 629 1015 556 1075 q 703 850 703 954 q 678 753 703 799 q 622 679 653 707 q 542 550 542 606 q 573 497 542 521 q 648 451 604 472 q 736 403 692 429 q 812 332 781 376 q 843 229 843 288 q 763 58 843 132 q 579 -15 683 -15 q 455 14 513 -15 q 372 72 397 43 l 347 101 l 457 229 q 481 201 465 218 q 541 157 496 185 q 628 129 586 129 q 700 193 700 129 q 669 240 700 218 q 594 283 638 261 q 506 332 550 304 q 430 407 461 360 q 399 511 399 454 q 424 614 399 568 q 479 688 449 660 q 560 811 560 761 q 517 889 560 861 q 406 917 474 917 q 309 891 339 917 q 279 804 279 865 l 276 361 l 292 35 l 104 0 l 121 338 l 115 558 l 24 558 l 39 672 l 113 672 l 111 778 z "},"à":{"ha":651,"x_min":33,"x_max":611,"o":"m 219 0 q 85 52 138 0 q 33 192 33 104 q 114 345 33 281 q 310 410 194 410 l 404 410 l 404 433 q 376 526 404 501 q 272 551 349 551 q 197 538 240 551 q 99 497 153 525 l 58 607 q 203 682 118 649 q 344 715 289 715 q 563 504 563 715 l 563 232 q 611 58 563 154 l 464 -4 q 413 115 429 63 q 219 0 336 0 m 165 865 l 181 1007 q 499 899 358 940 l 492 799 l 165 865 m 278 142 q 404 199 333 142 l 404 292 q 285 308 331 308 q 197 231 197 308 q 219 166 197 190 q 278 142 242 142 z "},"á":{"ha":651,"x_min":33,"x_max":611,"o":"m 219 0 q 85 52 138 0 q 33 192 33 104 q 114 345 33 281 q 310 410 194 410 l 404 410 l 404 433 q 376 526 404 501 q 272 551 349 551 q 197 538 240 551 q 99 497 153 525 l 58 607 q 203 682 118 649 q 344 715 289 715 q 563 504 563 715 l 563 232 q 611 58 563 154 l 464 -4 q 413 115 429 63 q 219 0 336 0 m 483 1007 l 499 865 q 172 799 317 824 l 165 899 q 483 1007 283 933 m 278 142 q 404 199 333 142 l 404 292 q 285 308 331 308 q 197 231 197 308 q 219 166 197 190 q 278 142 242 142 z "},"â":{"ha":651,"x_min":33,"x_max":611,"o":"m 219 0 q 85 52 138 0 q 33 192 33 104 q 114 345 33 281 q 310 410 194 410 l 404 410 l 404 433 q 376 526 404 501 q 272 551 349 551 q 197 538 240 551 q 99 497 153 525 l 58 607 q 203 682 118 649 q 344 715 289 715 q 563 504 563 715 l 563 232 q 611 58 563 154 l 464 -4 q 413 115 429 63 q 219 0 336 0 m 329 786 l 129 904 l 150 990 l 329 925 l 511 990 l 532 904 l 329 786 m 278 142 q 404 199 333 142 l 404 292 q 285 308 331 308 q 197 231 197 308 q 219 166 197 190 q 278 142 242 142 z "},"ã":{"ha":651,"x_min":33,"x_max":611,"o":"m 219 0 q 85 52 138 0 q 33 192 33 104 q 114 345 33 281 q 310 410 194 410 l 404 410 l 404 433 q 376 526 404 501 q 272 551 349 551 q 197 538 240 551 q 99 497 153 525 l 58 607 q 203 682 118 649 q 344 715 289 715 q 563 504 563 715 l 563 232 q 611 58 563 154 l 464 -4 q 413 115 429 63 q 219 0 336 0 m 521 976 l 560 917 q 478 833 521 869 q 414 797 436 797 q 322 826 393 800 q 229 856 250 853 l 138 797 l 99 857 q 180 940 138 904 q 244 976 222 976 q 337 947 265 974 q 429 918 408 921 l 521 976 m 278 142 q 404 199 333 142 l 404 292 q 285 308 331 308 q 197 231 197 308 q 219 166 197 190 q 278 142 242 142 z "},"ä":{"ha":651,"x_min":33,"x_max":611,"o":"m 219 0 q 85 52 138 0 q 33 192 33 104 q 114 345 33 281 q 310 410 194 410 l 404 410 l 404 433 q 376 526 404 501 q 272 551 349 551 q 197 538 240 551 q 99 497 153 525 l 58 607 q 203 682 118 649 q 344 715 289 715 q 563 504 563 715 l 563 232 q 611 58 563 154 l 464 -4 q 413 115 429 63 q 219 0 336 0 m 278 142 q 404 199 333 142 l 404 292 q 285 308 331 308 q 197 231 197 308 q 219 166 197 190 q 278 142 242 142 m 353 911 q 353 931 353 911 q 382 981 353 950 q 450 1011 411 1011 q 531 931 531 1011 q 502 853 531 883 q 435 822 474 822 q 375 847 397 822 q 353 911 353 872 m 128 911 q 128 931 128 911 q 157 981 128 950 q 225 1011 186 1011 q 285 990 264 1011 q 306 926 306 968 q 276 853 306 883 q 209 822 247 822 q 149 847 171 822 q 128 911 128 872 z "},"å":{"ha":651,"x_min":33,"x_max":611,"o":"m 219 0 q 85 52 138 0 q 33 192 33 104 q 114 345 33 281 q 310 410 194 410 l 404 410 l 404 433 q 376 526 404 501 q 272 551 349 551 q 197 538 240 551 q 99 497 153 525 l 58 607 q 203 682 118 649 q 344 715 289 715 q 563 504 563 715 l 563 232 q 611 58 563 154 l 464 -4 q 413 115 429 63 q 219 0 336 0 m 174 913 q 174 947 174 913 q 219 1028 174 981 q 333 1075 265 1075 q 443 1036 401 1075 q 485 926 485 997 q 439 807 485 856 q 326 758 393 758 q 217 802 260 758 q 174 913 174 846 m 278 142 q 404 199 333 142 l 404 292 q 285 308 331 308 q 197 231 197 308 q 219 166 197 190 q 278 142 242 142 m 403 922 q 403 939 403 922 q 383 977 403 957 q 331 997 364 997 q 277 974 299 997 q 256 917 256 951 q 276 859 256 882 q 327 836 296 836 q 381 861 358 836 q 403 922 403 886 z "},"æ":{"ha":971,"x_min":33,"x_max":931,"o":"m 682 142 q 767 163 722 142 q 836 204 811 183 l 861 225 l 925 147 q 882 93 911 124 q 823 41 853 63 q 744 2 793 19 q 642 -15 694 -15 q 433 107 504 -15 q 233 -15 353 -15 q 89 37 144 -15 q 33 177 33 89 q 101 322 33 265 q 289 388 168 379 l 390 396 l 390 433 q 365 526 390 501 q 272 551 340 551 q 197 538 240 551 q 99 497 153 525 l 58 607 q 106 638 76 619 q 210 685 135 656 q 340 715 285 715 q 511 617 474 715 q 710 715 603 715 q 874 658 818 715 q 931 499 931 601 q 910 363 931 449 l 882 333 l 533 308 q 682 142 554 142 m 682 572 q 584 526 625 572 q 533 408 543 481 l 767 429 q 771 479 771 458 q 682 572 771 572 m 390 290 l 390 299 l 286 292 q 217 272 236 289 q 197 215 197 256 q 223 151 197 175 q 296 126 249 126 q 404 179 343 126 q 390 290 390 226 z "},"ç":{"ha":535,"x_min":36,"x_max":528,"o":"m 308 -174 q 213 -118 308 -131 l 233 -12 q 90 85 144 3 q 36 290 36 168 q 135 588 36 460 q 365 715 233 715 q 446 703 406 715 q 528 667 486 692 l 431 496 q 319 535 381 535 q 225 491 258 535 q 192 357 192 447 q 226 212 192 267 q 325 157 260 157 q 390 178 358 157 q 439 219 422 199 l 454 242 l 524 169 q 393 22 478 78 q 321 -10 358 -1 l 313 -56 q 398 -97 368 -69 q 428 -160 428 -124 q 371 -253 428 -211 q 228 -306 314 -294 l 183 -244 q 308 -174 308 -222 z "},"è":{"ha":619,"x_min":36,"x_max":579,"o":"m 331 142 q 415 163 371 142 q 485 204 460 183 l 510 225 l 574 147 q 531 93 560 124 q 472 41 501 63 q 392 2 442 19 q 290 -15 343 -15 q 107 70 178 -15 q 36 290 36 156 q 135 588 36 460 q 365 715 233 715 q 523 658 467 715 q 579 499 579 601 q 558 360 579 438 l 531 331 l 183 299 q 331 142 207 142 m 178 865 l 193 1007 q 511 899 371 940 l 504 799 l 178 865 m 331 572 q 228 523 269 572 q 179 397 186 474 l 415 426 q 419 479 419 458 q 331 572 419 572 z "},"é":{"ha":619,"x_min":36,"x_max":579,"o":"m 331 142 q 415 163 371 142 q 485 204 460 183 l 510 225 l 574 147 q 531 93 560 124 q 472 41 501 63 q 392 2 442 19 q 290 -15 343 -15 q 107 70 178 -15 q 36 290 36 156 q 135 588 36 460 q 365 715 233 715 q 523 658 467 715 q 579 499 579 601 q 558 360 579 438 l 531 331 l 183 299 q 331 142 207 142 m 496 1007 l 511 865 q 185 799 329 824 l 178 899 q 496 1007 297 933 m 331 572 q 228 523 269 572 q 179 397 186 474 l 415 426 q 419 479 419 458 q 331 572 419 572 z "},"ê":{"ha":619,"x_min":36,"x_max":579,"o":"m 331 142 q 415 163 371 142 q 485 204 460 183 l 510 225 l 574 147 q 531 93 560 124 q 472 41 501 63 q 392 2 442 19 q 290 -15 343 -15 q 107 70 178 -15 q 36 290 36 156 q 135 588 36 460 q 365 715 233 715 q 523 658 467 715 q 579 499 579 601 q 558 360 579 438 l 531 331 l 183 299 q 331 142 207 142 m 342 786 l 142 904 l 163 990 l 342 925 l 524 990 l 544 904 l 342 786 m 331 572 q 228 523 269 572 q 179 397 186 474 l 415 426 q 419 479 419 458 q 331 572 419 572 z "},"ë":{"ha":619,"x_min":36,"x_max":579,"o":"m 331 142 q 415 163 371 142 q 485 204 460 183 l 510 225 l 574 147 q 531 93 560 124 q 472 41 501 63 q 392 2 442 19 q 290 -15 343 -15 q 107 70 178 -15 q 36 290 36 156 q 135 588 36 460 q 365 715 233 715 q 523 658 467 715 q 579 499 579 601 q 558 360 579 438 l 531 331 l 183 299 q 331 142 207 142 m 331 572 q 228 523 269 572 q 179 397 186 474 l 415 426 q 419 479 419 458 q 331 572 419 572 m 365 911 q 365 931 365 911 q 394 981 365 950 q 464 1011 424 1011 q 543 931 543 1011 q 515 853 543 883 q 448 822 486 822 q 388 847 410 822 q 365 911 365 872 m 140 911 q 140 931 140 911 q 169 981 140 950 q 238 1011 199 1011 q 297 990 276 1011 q 318 926 318 968 q 289 853 318 883 q 222 822 260 822 q 162 847 183 822 q 140 911 140 872 z "},"ì":{"ha":339,"x_min":7,"x_max":340,"o":"m 267 707 l 250 361 l 265 35 l 79 0 l 96 338 l 81 672 l 267 707 m 7 865 l 22 1007 q 340 899 200 940 l 333 799 l 7 865 z "},"í":{"ha":339,"x_min":7,"x_max":340,"o":"m 267 707 l 250 361 l 265 35 l 79 0 l 96 338 l 81 672 l 267 707 m 325 1007 l 340 865 q 14 799 158 824 l 7 899 q 325 1007 125 933 z "},"î":{"ha":339,"x_min":-29,"x_max":374,"o":"m 171 786 l -29 904 l -8 990 l 171 925 l 353 990 l 374 904 l 171 786 m 267 707 l 250 361 l 265 35 l 79 0 l 96 338 l 81 672 l 267 707 z "},"ï":{"ha":339,"x_min":-31,"x_max":372,"o":"m 267 707 l 250 361 l 265 35 l 79 0 l 96 338 l 81 672 l 267 707 m -31 911 q -31 931 -31 911 q -1 981 -31 950 q 67 1011 28 1011 q 126 990 106 1011 q 147 926 147 968 q 118 853 147 883 q 51 822 89 822 q -9 847 13 822 q -31 911 -31 872 m 194 911 q 194 931 194 911 q 224 981 194 950 q 292 1011 253 1011 q 372 931 372 1011 q 344 853 372 883 q 277 822 315 822 q 217 847 239 822 q 194 911 194 872 z "},"ð":{"ha":714,"x_min":39,"x_max":674,"o":"m 674 363 q 576 93 674 201 q 332 -15 479 -15 q 125 75 211 -15 q 39 293 39 165 q 119 551 39 453 q 328 649 200 649 q 439 618 388 649 q 292 815 386 718 l 93 711 l 81 774 l 246 860 q 76 1001 164 935 l 254 1083 q 392 938 308 1029 l 579 1036 l 594 972 l 433 889 q 617 612 560 738 q 674 363 674 486 m 362 131 q 398 131 362 131 q 473 176 433 131 q 513 310 513 222 q 492 482 513 399 q 357 515 422 515 q 207 322 207 515 q 249 183 207 236 q 362 131 290 131 z "},"ñ":{"ha":726,"x_min":65,"x_max":654,"o":"m 483 351 q 467 479 483 447 q 389 511 450 511 q 250 463 328 511 l 250 361 l 265 35 l 79 0 l 96 338 q 65 671 90 524 l 233 707 q 247 550 243 626 q 294 605 268 578 q 378 666 321 632 q 498 700 435 700 q 604 651 561 700 q 647 517 647 601 l 639 361 l 654 28 l 467 -7 l 483 351 m 575 976 l 614 917 q 533 833 575 869 q 468 797 490 797 q 376 826 447 800 q 283 856 304 853 l 192 797 l 153 857 q 234 940 192 904 q 299 976 276 976 q 391 947 319 974 q 483 918 463 921 l 575 976 z "},"ò":{"ha":669,"x_min":39,"x_max":631,"o":"m 39 290 q 135 592 39 468 q 359 715 231 715 q 559 632 488 715 q 631 411 631 549 q 538 106 631 228 q 306 -15 446 -15 q 115 72 190 -15 q 39 290 39 158 m 475 339 q 338 540 475 540 q 194 351 194 540 q 235 197 194 253 q 341 142 275 142 q 441 192 407 142 q 475 339 475 243 m 175 865 l 190 1007 q 508 899 368 940 l 501 799 l 175 865 z "},"ó":{"ha":669,"x_min":39,"x_max":631,"o":"m 39 290 q 135 592 39 468 q 359 715 231 715 q 559 632 488 715 q 631 411 631 549 q 538 106 631 228 q 306 -15 446 -15 q 115 72 190 -15 q 39 290 39 158 m 475 339 q 338 540 475 540 q 194 351 194 540 q 235 197 194 253 q 341 142 275 142 q 441 192 407 142 q 475 339 475 243 m 493 1007 l 508 865 q 182 799 326 824 l 175 899 q 493 1007 294 933 z "},"ô":{"ha":669,"x_min":39,"x_max":631,"o":"m 339 786 l 139 904 l 160 990 l 339 925 l 521 990 l 542 904 l 339 786 m 39 290 q 135 592 39 468 q 359 715 231 715 q 559 632 488 715 q 631 411 631 549 q 538 106 631 228 q 306 -15 446 -15 q 115 72 190 -15 q 39 290 39 158 m 475 339 q 338 540 475 540 q 194 351 194 540 q 235 197 194 253 q 341 142 275 142 q 441 192 407 142 q 475 339 475 243 z "},"õ":{"ha":669,"x_min":39,"x_max":631,"o":"m 39 290 q 135 592 39 468 q 359 715 231 715 q 559 632 488 715 q 631 411 631 549 q 538 106 631 228 q 306 -15 446 -15 q 115 72 190 -15 q 39 290 39 158 m 475 339 q 338 540 475 540 q 194 351 194 540 q 235 197 194 253 q 341 142 275 142 q 441 192 407 142 q 475 339 475 243 m 531 976 l 569 917 q 488 833 531 869 q 424 797 446 797 q 331 826 403 800 q 239 856 260 853 l 147 797 l 108 857 q 190 940 147 904 q 254 976 232 976 q 347 947 275 974 q 439 918 418 921 l 531 976 z "},"ö":{"ha":669,"x_min":39,"x_max":631,"o":"m 39 290 q 135 592 39 468 q 359 715 231 715 q 559 632 488 715 q 631 411 631 549 q 538 106 631 228 q 306 -15 446 -15 q 115 72 190 -15 q 39 290 39 158 m 475 339 q 338 540 475 540 q 194 351 194 540 q 235 197 194 253 q 341 142 275 142 q 441 192 407 142 q 475 339 475 243 m 138 911 q 138 931 138 911 q 167 981 138 950 q 235 1011 196 1011 q 294 990 274 1011 q 315 926 315 968 q 286 853 315 883 q 219 822 257 822 q 159 847 181 822 q 138 911 138 872 m 363 911 q 363 931 363 911 q 392 981 363 950 q 461 1011 421 1011 q 540 931 540 1011 q 512 853 540 883 q 445 822 483 822 q 385 847 407 822 q 363 911 363 872 z "},"÷":{"ha":590,"x_min":24,"x_max":567,"o":"m 24 299 l 35 425 l 567 425 l 556 299 l 24 299 m 193 586 q 193 608 193 586 q 226 665 193 631 q 303 699 258 699 q 394 607 394 699 q 362 519 394 554 q 285 485 329 485 q 217 513 242 485 q 193 586 193 542 m 193 125 q 193 147 193 125 q 226 203 193 169 q 303 238 258 238 q 394 146 394 238 q 362 58 394 93 q 285 24 329 24 q 217 52 242 24 q 193 125 193 81 z "},"ø":{"ha":669,"x_min":39,"x_max":635,"o":"m 368 715 q 485 689 432 715 l 574 849 l 635 824 l 539 651 q 631 398 631 568 q 538 106 631 228 q 306 -15 446 -15 q 186 14 244 -15 l 103 -137 l 43 -111 l 133 51 q 39 290 39 142 q 135 592 39 468 q 368 715 231 715 m 353 142 q 380 142 353 142 q 441 192 407 142 q 475 338 475 243 q 446 483 475 433 l 269 163 q 353 142 300 142 m 194 351 q 224 215 194 267 l 397 529 q 338 540 371 540 q 194 351 194 540 z "},"ù":{"ha":708,"x_min":72,"x_max":664,"o":"m 247 0 q 126 49 172 0 q 79 179 79 99 l 88 339 l 72 672 l 258 707 l 240 285 q 262 197 240 225 q 331 169 283 169 q 461 217 378 169 l 461 300 l 446 665 l 633 700 l 617 353 l 618 239 q 664 60 618 150 l 519 -4 q 464 140 474 86 q 247 0 339 0 m 194 865 l 210 1007 q 528 899 388 940 l 521 799 l 194 865 z "},"ú":{"ha":708,"x_min":72,"x_max":664,"o":"m 247 0 q 126 49 172 0 q 79 179 79 99 l 88 339 l 72 672 l 258 707 l 240 285 q 262 197 240 225 q 331 169 283 169 q 461 217 378 169 l 461 300 l 446 665 l 633 700 l 617 353 l 618 239 q 664 60 618 150 l 519 -4 q 464 140 474 86 q 247 0 339 0 m 513 1007 l 528 865 q 201 799 346 824 l 194 899 q 513 1007 313 933 z "},"û":{"ha":708,"x_min":72,"x_max":664,"o":"m 247 0 q 126 49 172 0 q 79 179 79 99 l 88 339 l 72 672 l 258 707 l 240 285 q 262 197 240 225 q 331 169 283 169 q 461 217 378 169 l 461 300 l 446 665 l 633 700 l 617 353 l 618 239 q 664 60 618 150 l 519 -4 q 464 140 474 86 q 247 0 339 0 m 358 786 l 158 904 l 179 990 l 358 925 l 540 990 l 561 904 l 358 786 z "},"ü":{"ha":708,"x_min":72,"x_max":664,"o":"m 247 0 q 126 49 172 0 q 79 179 79 99 l 88 339 l 72 672 l 258 707 l 240 285 q 262 197 240 225 q 331 169 283 169 q 461 217 378 169 l 461 300 l 446 665 l 633 700 l 617 353 l 618 239 q 664 60 618 150 l 519 -4 q 464 140 474 86 q 247 0 339 0 m 382 911 q 382 931 382 911 q 411 981 382 950 q 481 1011 440 1011 q 560 931 560 1011 q 531 853 560 883 q 465 822 503 822 q 404 847 426 822 q 382 911 382 872 m 157 911 q 157 931 157 911 q 186 981 157 950 q 254 1011 215 1011 q 314 990 293 1011 q 335 926 335 968 q 306 853 335 883 q 238 822 276 822 q 178 847 200 822 q 157 911 157 872 z "},"ý":{"ha":646,"x_min":0,"x_max":642,"o":"m 100 -268 l 243 53 l 140 333 l 0 671 l 185 706 l 274 410 l 319 269 l 338 269 l 371 371 l 471 707 l 642 686 l 396 40 l 279 -306 l 100 -268 m 478 1007 l 493 865 q 167 799 311 824 l 160 899 q 478 1007 278 933 z "},"þ":{"ha":693,"x_min":78,"x_max":658,"o":"m 449 701 q 598 624 538 701 q 658 414 658 546 q 563 115 658 229 q 326 0 468 0 q 261 4 297 0 l 268 -261 l 78 -296 l 96 338 l 79 1040 l 269 1075 l 251 717 l 251 565 q 288 610 265 585 q 358 669 310 636 q 449 701 406 701 m 394 521 q 251 481 321 521 l 251 361 l 257 163 q 371 150 332 150 q 504 335 504 150 q 394 521 504 521 m 251 361 l 97 338 l 251 361 z "},"ÿ":{"ha":646,"x_min":0,"x_max":642,"o":"m 100 -268 l 243 53 l 140 333 l 0 671 l 185 706 l 274 410 l 319 269 l 338 269 l 371 371 l 471 707 l 642 686 l 396 40 l 279 -306 l 100 -268 m 122 911 q 122 931 122 911 q 151 981 122 950 q 219 1011 181 1011 q 279 990 258 1011 q 300 926 300 968 q 271 853 300 883 q 203 822 242 822 q 144 847 165 822 q 122 911 122 872 m 347 911 q 347 931 347 911 q 376 981 347 950 q 444 1011 406 1011 q 525 931 525 1011 q 497 853 525 883 q 430 822 468 822 q 369 847 392 822 q 347 911 347 872 z "},"ħ":{"ha":729,"x_min":-11,"x_max":657,"o":"m 300 607 q 313 620 300 607 q 382 667 326 633 q 501 700 438 700 q 607 651 564 700 q 650 517 650 601 l 642 361 l 657 28 l 469 -7 l 486 351 q 469 479 486 447 q 392 511 453 511 q 253 463 331 511 l 253 361 l 268 35 l 81 0 l 97 338 l 86 797 l -11 797 l -4 863 l 85 863 l 81 1040 l 271 1075 l 260 863 l 424 863 l 418 797 l 257 797 l 253 715 l 253 553 q 300 607 274 581 z "},"Ĩ":{"ha":419,"x_min":-19,"x_max":442,"o":"m 308 965 l 289 361 l 306 0 l 111 0 l 128 338 l 111 931 l 308 965 m 403 1233 l 442 1174 q 360 1090 403 1126 q 296 1054 318 1054 q 203 1083 275 1057 q 111 1113 132 1110 l 19 1054 l -19 1114 q 62 1197 19 1161 q 126 1233 104 1233 q 219 1204 147 1231 q 311 1175 290 1178 l 403 1233 z "},"ĩ":{"ha":339,"x_min":-60,"x_max":401,"o":"m 267 707 l 250 361 l 265 35 l 79 0 l 96 338 l 81 672 l 267 707 m 363 976 l 401 917 q 320 833 363 869 q 256 797 278 797 q 163 826 235 800 q 71 856 92 853 l -21 797 l -60 857 q 22 940 -21 904 q 86 976 64 976 q 178 947 107 974 q 271 918 250 921 l 363 976 z "},"ı":{"ha":339,"x_min":79,"x_max":267,"o":"m 267 707 l 250 361 l 265 35 l 79 0 l 96 338 l 81 672 l 267 707 z "},"ĳ":{"ha":682,"x_min":71,"x_max":628,"o":"m 267 707 l 250 361 l 265 35 l 79 0 l 96 338 l 81 672 l 267 707 m 71 910 q 71 934 71 910 q 107 994 71 957 q 190 1031 143 1031 q 263 1005 238 1031 q 288 928 288 979 q 252 840 288 876 q 170 803 217 803 q 97 833 124 803 q 71 910 71 864 m 343 -306 q 229 -293 286 -306 l 272 -135 q 360 -147 319 -147 q 419 -117 401 -147 q 438 -7 438 -86 l 436 338 l 421 672 l 607 707 l 590 361 l 606 47 q 528 -201 606 -97 q 343 -306 450 -306 m 411 909 q 411 933 411 909 q 447 994 411 957 q 531 1031 483 1031 q 603 1005 579 1031 q 628 928 628 979 q 593 840 628 878 q 512 803 558 803 q 438 832 465 803 q 411 909 411 861 z "},"Ĵ":{"ha":490,"x_min":0,"x_max":501,"o":"m 299 1043 l 99 1161 l 119 1247 l 299 1182 l 481 1247 l 501 1161 l 299 1043 m 114 -14 q 0 -1 57 -14 l 44 165 q 133 150 90 150 q 218 290 218 150 l 199 931 l 396 965 l 376 339 q 303 87 376 188 q 114 -14 229 -14 z "},"ĵ":{"ha":343,"x_min":-110,"x_max":372,"o":"m 4 -306 q -110 -293 -53 -306 l -67 -135 q 22 -147 -19 -147 q 81 -117 63 -147 q 99 -7 99 -86 l 97 338 l 82 672 l 268 707 l 251 361 l 267 47 q 189 -201 267 -97 q 4 -306 111 -306 m 169 786 l -31 904 l -10 990 l 169 925 l 351 990 l 372 904 l 169 786 z "},"ķ":{"ha":669,"x_min":79,"x_max":672,"o":"m 204 -174 q 108 -118 204 -131 l 133 10 l 81 0 l 97 338 l 81 1040 l 271 1075 l 253 404 l 531 708 l 661 619 l 418 392 l 672 92 l 514 -14 l 253 371 l 253 361 l 268 35 l 224 26 l 208 -56 q 294 -97 264 -69 q 324 -160 324 -124 q 267 -253 324 -211 q 124 -306 210 -294 l 79 -244 q 204 -174 204 -222 z "},"ĸ":{"ha":669,"x_min":79,"x_max":672,"o":"m 267 707 l 251 403 l 531 708 l 661 619 l 418 392 l 672 92 l 514 -14 l 250 375 l 250 361 l 265 35 l 79 0 l 96 338 l 81 672 l 267 707 z "},"ŀ":{"ha":524,"x_min":81,"x_max":510,"o":"m 271 1075 l 253 361 l 268 35 l 81 0 l 97 338 l 81 1040 l 271 1075 m 308 410 q 308 432 308 410 q 341 488 308 454 q 419 522 374 522 q 510 431 510 522 q 477 343 510 378 q 401 308 444 308 q 333 337 357 308 q 308 410 308 365 z "},"Ł":{"ha":619,"x_min":4,"x_max":611,"o":"m 336 965 l 325 626 l 485 715 l 513 654 l 322 549 l 317 361 l 326 136 l 611 158 l 596 0 l 139 0 l 156 338 l 151 456 l 29 388 l 4 449 l 150 529 l 139 931 l 336 965 z "},"ł":{"ha":379,"x_min":-26,"x_max":414,"o":"m 285 1075 l 274 653 l 386 715 l 414 654 l 272 575 l 267 361 l 282 35 l 94 0 l 111 338 l 107 485 l -1 425 l -26 486 l 106 560 l 94 1040 l 285 1075 z "},"Ń":{"ha":957,"x_min":111,"x_max":846,"o":"m 846 961 l 828 361 l 843 31 l 679 -4 l 265 665 l 265 361 l 285 0 l 111 0 l 128 338 l 111 954 l 278 963 l 690 283 l 676 940 l 846 961 m 633 1264 l 649 1122 q 322 1056 467 1081 l 315 1156 q 633 1264 433 1190 z "},"ń":{"ha":726,"x_min":65,"x_max":654,"o":"m 483 351 q 467 479 483 447 q 389 511 450 511 q 250 463 328 511 l 250 361 l 265 35 l 79 0 l 96 338 q 65 671 90 524 l 233 707 q 247 550 243 626 q 294 605 268 578 q 378 666 321 632 q 498 700 435 700 q 604 651 561 700 q 647 517 647 601 l 639 361 l 654 28 l 467 -7 l 483 351 m 538 1007 l 553 865 q 226 799 371 824 l 219 899 q 538 1007 339 933 z "},"Œ":{"ha":1240,"x_min":42,"x_max":1165,"o":"m 418 0 q 150 124 258 0 q 42 431 42 249 q 174 806 42 653 q 500 958 307 958 l 1163 958 l 1147 810 l 786 810 l 778 564 l 1104 564 l 1089 417 l 772 417 l 771 361 l 781 147 l 1165 147 l 1150 0 l 418 0 m 471 796 q 294 719 358 796 q 231 508 231 643 q 297 236 231 332 q 486 140 364 140 q 583 161 557 140 q 608 242 608 182 l 604 685 q 579 776 604 756 q 471 796 554 796 z "},"œ":{"ha":1079,"x_min":39,"x_max":1039,"o":"m 790 142 q 875 163 831 142 q 944 204 919 183 l 969 225 l 1033 147 q 990 93 1019 124 q 931 41 961 63 q 852 2 901 19 q 750 -15 803 -15 q 538 121 607 -15 q 306 -15 449 -15 q 115 72 190 -15 q 39 290 39 158 q 135 592 39 468 q 368 715 231 715 q 499 677 442 715 q 586 571 556 639 q 825 715 685 715 q 983 658 926 715 q 1039 499 1039 601 q 1018 360 1039 449 l 990 331 l 643 300 q 790 142 667 142 m 338 540 q 194 351 194 540 q 235 197 194 253 q 342 142 275 142 q 475 341 475 142 q 338 540 475 540 m 790 572 q 689 523 731 572 q 640 396 647 474 l 875 426 q 879 479 879 458 q 790 572 879 572 z "},"Ŕ":{"ha":804,"x_min":111,"x_max":774,"o":"m 360 369 l 281 369 l 281 361 l 297 0 l 111 0 l 128 338 l 111 958 l 413 958 q 625 886 546 958 q 704 694 704 814 q 658 530 704 604 q 532 413 611 456 l 774 71 l 606 -15 l 389 371 q 360 369 379 369 m 363 818 l 294 818 l 285 504 l 379 504 q 487 550 449 504 q 525 681 525 596 q 363 818 525 818 m 549 1264 l 564 1122 q 238 1056 382 1081 l 231 1156 q 549 1264 350 1190 z "},"Ŗ":{"ha":804,"x_min":111,"x_max":774,"o":"m 360 369 l 281 369 l 281 361 l 297 0 l 111 0 l 128 338 l 111 958 l 413 958 q 625 886 546 958 q 704 694 704 814 q 658 530 704 604 q 532 413 611 456 l 774 71 l 606 -15 l 389 371 q 360 369 379 369 m 363 818 l 294 818 l 285 504 l 379 504 q 487 550 449 504 q 525 681 525 596 q 363 818 525 818 z "},"ŗ":{"ha":494,"x_min":49,"x_max":488,"o":"m 65 671 l 233 707 q 250 504 246 600 q 488 700 376 700 l 472 483 q 345 469 392 483 q 250 411 299 454 l 250 361 l 265 35 l 79 0 l 96 338 q 65 671 90 524 m 278 -176 q 106 -426 278 -294 l 49 -385 q 131 -219 131 -289 q 94 -110 131 -176 l 231 -56 q 278 -176 278 -115 z "},"Ř":{"ha":804,"x_min":111,"x_max":774,"o":"m 360 369 l 281 369 l 281 361 l 297 0 l 111 0 l 128 338 l 111 958 l 413 958 q 625 886 546 958 q 704 694 704 814 q 658 530 704 604 q 532 413 611 456 l 774 71 l 606 -15 l 389 371 q 360 369 379 369 m 363 818 l 294 818 l 285 504 l 379 504 q 487 550 449 504 q 525 681 525 596 q 363 818 525 818 m 394 1043 l 194 1161 l 215 1247 l 394 1182 l 576 1247 l 597 1161 l 394 1043 z "},"ř":{"ha":494,"x_min":3,"x_max":488,"o":"m 65 671 l 233 707 q 250 504 246 600 q 488 700 376 700 l 472 483 q 345 469 392 483 q 250 411 299 454 l 250 361 l 265 35 l 79 0 l 96 338 q 65 671 90 524 m 163 786 l 3 904 l 19 990 l 163 925 l 308 990 l 325 904 l 163 786 z "},"ˆ":{"ha":339,"x_min":-32,"x_max":371,"o":"m 168 786 l -32 904 l -11 990 l 168 925 l 350 990 l 371 904 l 168 786 z "},"˜":{"ha":339,"x_min":-61,"x_max":400,"o":"m 361 976 l 400 917 q 319 833 361 869 q 254 797 276 797 q 162 826 233 800 q 69 856 90 853 l -22 797 l -61 857 q 20 940 -22 904 q 85 976 63 976 q 177 947 106 974 q 269 918 249 921 l 361 976 z "},"–":{"ha":590,"x_min":-11,"x_max":601,"o":"m -11 299 l 0 425 l 601 425 l 590 299 l -11 299 z "},"—":{"ha":765,"x_min":-11,"x_max":776,"o":"m -11 299 l 0 425 l 776 425 l 765 299 l -11 299 z "},"‘":{"ha":268,"x_min":25,"x_max":254,"o":"m 25 644 q 197 894 25 763 l 254 853 q 172 688 172 757 q 208 578 172 644 l 72 524 q 25 644 25 583 z "},"’":{"ha":268,"x_min":14,"x_max":243,"o":"m 243 774 q 71 524 243 656 l 14 565 q 96 731 96 661 q 60 840 96 774 l 196 894 q 243 774 243 835 z "},"‚":{"ha":285,"x_min":0,"x_max":229,"o":"m 229 93 q 57 -157 229 -25 l 0 -115 q 82 50 82 -19 q 46 160 82 93 l 182 214 q 229 93 229 154 z "},"“":{"ha":504,"x_min":25,"x_max":490,"o":"m 25 644 q 197 894 25 763 l 254 853 q 172 688 172 757 q 208 578 172 644 l 72 524 q 25 644 25 583 m 261 644 q 433 894 261 763 l 490 853 q 408 688 408 757 q 444 578 408 644 l 308 524 q 261 644 261 583 z "},"”":{"ha":504,"x_min":14,"x_max":479,"o":"m 243 774 q 71 524 243 656 l 14 565 q 96 731 96 661 q 60 840 96 774 l 196 894 q 243 774 243 835 m 479 774 q 307 524 479 656 l 250 565 q 332 731 332 661 q 296 840 332 774 l 432 894 q 479 774 479 835 z "},"„":{"ha":521,"x_min":0,"x_max":465,"o":"m 229 93 q 57 -157 229 -25 l 0 -115 q 82 50 82 -19 q 46 160 82 93 l 182 214 q 229 93 229 154 m 465 93 q 293 -157 465 -25 l 236 -115 q 318 50 318 -19 q 282 160 318 93 l 418 214 q 465 93 465 154 z "},"•":{"ha":414,"x_min":56,"x_max":357,"o":"m 56 354 q 56 388 56 354 q 105 472 56 421 q 221 524 154 524 q 322 488 288 524 q 357 379 357 451 q 308 255 357 307 q 194 203 260 203 q 92 245 128 203 q 56 354 56 288 z "},"‹":{"ha":343,"x_min":10,"x_max":322,"o":"m 176 368 l 322 179 l 242 113 l 10 358 l 242 618 l 322 551 l 176 368 z "},"›":{"ha":343,"x_min":21,"x_max":333,"o":"m 167 363 l 21 551 l 101 618 l 333 372 l 101 113 l 21 179 l 167 363 z "},"€":{"ha":814,"x_min":18,"x_max":800,"o":"m 321 338 q 389 198 340 246 q 504 150 438 150 q 619 188 571 150 q 689 290 668 226 l 800 226 q 669 49 757 113 q 462 -15 582 -15 q 247 85 342 -15 q 135 338 153 185 l 18 338 l 25 403 l 132 403 q 142 510 132 461 l 18 510 l 25 575 l 157 575 q 303 813 200 722 q 539 903 407 903 q 663 889 606 903 q 744 861 721 875 l 769 847 l 679 664 q 595 713 646 692 q 488 735 544 735 q 385 693 432 735 q 319 575 339 651 l 633 575 l 628 510 l 310 510 q 308 460 308 497 q 311 403 308 424 l 633 403 l 628 338 l 321 338 z "},"ﬁ":{"ha":760,"x_min":24,"x_max":708,"o":"m 374 1075 q 494 1063 432 1075 l 451 904 q 358 917 400 917 q 298 892 317 917 q 279 804 279 867 l 278 674 l 508 674 l 688 707 l 671 361 l 686 35 l 500 0 l 517 338 l 506 560 l 278 560 l 276 361 l 292 35 l 104 0 l 121 338 l 115 560 l 24 560 l 39 674 l 113 674 l 111 778 q 188 988 111 901 q 374 1075 264 1075 m 492 910 q 492 934 492 910 q 528 994 492 957 q 611 1031 564 1031 q 683 1005 658 1031 q 708 928 708 979 q 673 840 708 876 q 591 803 638 803 q 518 833 544 803 q 492 910 492 864 z "},"ﬂ":{"ha":783,"x_min":24,"x_max":697,"o":"m 510 897 q 360 917 403 917 q 298 892 317 917 q 279 804 279 868 l 278 672 l 428 672 l 413 558 l 278 558 l 276 361 l 292 35 l 104 0 l 121 338 l 115 558 l 24 558 l 39 672 l 113 672 l 111 778 q 188 989 111 903 q 379 1075 264 1075 q 569 1051 449 1075 l 697 1075 l 679 361 l 694 35 l 507 0 l 524 338 l 510 897 z "}}}
